<?xml version="1.0" encoding="utf-8"?>
<!-- Generator: IcoMoon.io  -->
<!DOCTYPE svg PUBLIC "-//W3C//DTD SVG 1.1//EN" "http://www.w3.org/Graphics/SVG/1.1/DTD/svg11.dtd">
<svg width="868" height="420" viewBox="0 0 868 420" data-du="¶" data-tags="pilcrow" style="margin-left: 2px; margin-top: 2px;" xmlns="http://www.w3.org/2000/svg" fill="#444444"><path d="M 480,64l-32,0 l0,416 q0,13 -9.5,22.5t-22.75,9.5t-22.5-9.5t-9.25-22.5l0-416 l-128,0 l0,416 q0,13 -9.5,22.5t-22.75,9.5t-22.5-9.5t-9.25-22.5l0-160 l-32,0 q-43.5,0 -80.25-21.5t-58.25-58.25t-21.5-80.25t 21.5-80.25t 58.25-58.25t 80.25-21.5l 320,0 q 13,0 22.5,9.25t 9.5,22.5t-9.25,22.75t-22.75,9.5z" transform="scale(0.0546875 0.0546875)"></path><path d="M 75.168,14l 8.285,8.313q 0.547,0.547 0.547,1.299t-0.547,1.271l-2.57,2.57q-0.52,0.547 -1.285,0.547t-1.285-0.547l-8.313-8.285l-8.313,8.285q-0.52,0.547 -1.285,0.547t-1.285-0.547l-2.57-2.57q-0.547-0.52 -0.547-1.271t 0.547-1.299l 8.285-8.313l-8.285-8.285q-0.547-0.547 -0.547-1.299t 0.547-1.299l 2.57-2.57q 0.52-0.52 1.285-0.52t 1.285,0.52l 8.313,8.313l 8.313-8.313q 0.52-0.52 1.285-0.52t 1.285,0.52
l 2.57,2.57q 0.547,0.547 0.547,1.299t-0.547,1.299z"></path><path d="M 139.467,15.189q-0.533,0.533 -1.285,0.533t-1.271-0.52l-0.41-0.41l0,11.457 q0,0.711 -0.506,1.23t-1.244,0.52l-5.25,0 l0-7.875 q0-0.355 -0.26-0.615t-0.615-0.26l-5.25,0 q-0.355,0 -0.615,0.26t-0.26,0.615l0,7.875 l-5.25,0 q-0.738,0 -1.244-0.52t-0.506-1.23l0-11.457 l-0.41,0.41q-0.52,0.52 -1.271,0.52t-1.285-0.533t-0.533-1.285t 0.52-1.271l 12.141-12.141
q 0.547-0.547 1.34-0.52q 0.793-0.027 1.34,0.52l 12.141,12.141q 0.52,0.52 0.52,1.271t-0.533,1.285z"></path><path d="M 189,21q-2.652,0 -7-4.184q-4.348,4.184 -7,4.184q-2.898,0 -4.949-2.051t-2.051-4.949t 2.051-4.949t 4.949-2.051q 2.68,0 7,4.184q 4.348-4.184 7-4.184q 2.898,0 4.949,2.051t 2.051,4.949t-2.051,4.949t-4.949,2.051zM 175,10.5q-1.559,0 -2.529,1.012t-0.971,2.488t 0.971,2.488t 2.529,1.012q 0.602,0 1.271-0.355t 1.203-0.875t 0.971-1.039t 0.684-0.875l 0.246-0.355
q-0.082-0.137 -0.246-0.369t-0.67-0.848t-0.998-1.066t-1.176-0.834t-1.285-0.383zM 189,10.5q-0.602,0 -1.271,0.355t-1.203,0.875t-0.971,1.039t-0.684,0.875l-0.246,0.355q 0.082,0.137 0.246,0.383t 0.67,0.848t 0.998,1.053t 1.176,0.834t 1.285,0.383q 1.559,0 2.529-1.012t 0.971-2.488t-0.971-2.488t-2.529-1.012z"></path><path d="M 224,28l0-28.027 l 28,0 l0,28.027 l-28,0 zM 250.25,1.723l-24.5,0 l0,21.027 l 24.5,0 l0-21.027 zM 231,3.473q 1.449,0 2.475,1.025t 1.025,2.475t-1.025,2.475t-2.475,1.025t-2.475-1.012t-1.025-2.461l0-0.027 q0-1.449 1.025-2.475t 2.475-1.025zM 234.035,14.465l 6.508,6.535l-13.043,0 l0-2.543 l 3.992-3.992q 0.492-0.492 1.271-0.492t 1.271,0.492zM 242.867,9.215q 0.492-0.52 1.271-0.52t 1.271,0.52
l 3.090,3.090l0,8.695 l-5.578,0 q0-0.027 -0.041-0.096t-0.068-0.123l-5.77-5.742z"></path><path d="M 294,28q-2.844,0 -5.441-1.107t-4.471-2.98t-2.98-4.471t-1.107-5.441t 1.107-5.441t 2.98-4.471t 4.471-2.98t 5.441-1.107t 5.441,1.107t 4.471,2.98t 2.98,4.471t 1.107,5.441t-1.107,5.441t-2.98,4.471t-4.471,2.98t-5.441,1.107zM 294,3.5q-2.844,0 -5.264,1.408t-3.828,3.828t-1.408,5.264t 1.408,5.264
t 3.828,3.828t 5.264,1.408t 5.264-1.408t 3.828-3.828t 1.408-5.264t-1.408-5.264t-3.828-3.828t-5.264-1.408zM 298.785,18.785q-0.465,0.465 -1.121,0.465t-1.121-0.465l-2.57-2.57l-2.543,2.57q-0.465,0.465 -1.121,0.465t-1.121-0.465t-0.465-1.121t 0.465-1.121l 2.543-2.57l-2.543-2.543q-0.465-0.465 -0.465-1.121t 0.465-1.121t 1.121-0.465t 1.121,0.465l 2.543,2.57l 2.57-2.57q 0.465-0.465 1.121-0.465t 1.121,0.465t 0.465,1.121
t-0.465,1.121l-2.57,2.543l 2.57,2.57q 0.465,0.465 0.465,1.121t-0.465,1.121z"></path><path d="M 350,28q-3.801,0 -7.027-1.873t-5.1-5.1t-1.873-7.027t 1.873-7.027t 5.1-5.1t 7.027-1.873t 7.027,1.873t 5.1,5.1t 1.873,7.027t-1.873,7.027t-5.1,5.1t-7.027,1.873zM 350,3.5q-2.844,0 -5.264,1.408t-3.828,3.828t-1.408,5.264t 1.408,5.264t 3.828,3.828t 5.264,1.408t 5.264-1.408t 3.828-3.828
t 1.408-5.264t-1.408-5.264t-3.828-3.828t-5.264-1.408zM 349.945,18.020q-0.137,0.492 -0.41,0.766q-0.547,0.547 -1.34,0.438q-0.766,0.055 -1.258-0.438q-0.273-0.273 -0.383-0.738l-3.117-3.117q-0.465-0.465 -0.465-1.121t 0.465-1.121t 1.121-0.465t 1.121,0.465l 2.543,2.543l 6.070-6.043q 0.465-0.465 1.121-0.465t 1.121,0.465t 0.465,1.121t-0.465,1.121z"></path><path d="M 395.008,27.48q-0.52,0.52 -1.244,0.52t-1.244-0.52t-0.52-1.244t 0.52-1.244l 3.336-3.336q-3.035-3.281 -3.828-7.629q 0.629-3.445 2.652-6.248t 5.004-4.402t 6.316-1.6q 3.965,0 7.438,2.297l 3.527-3.527q 0.52-0.52 1.258-0.52t 1.244,0.506t 0.506,1.244t-0.52,1.258zM 406,5.277q-3.582,0 -6.699,1.75l-0.301,0 l0,0.164 q-1.996,1.203 -3.377,2.967t-1.846,3.869
q 0.766,3.418 3.855,5.852l 2.324-2.352q-0.957-1.613 -0.957-3.5q0-1.641 0.766-3.117l 1.559,0.766q-0.574,1.148 -0.574,2.352q0,1.176 0.52,2.215l 1.367-1.367q-0.137-0.465 -0.137-0.848q0-0.793 0.383-1.559l 1.449,0.711l 0.82-0.848l-0.711-1.422q 0.766-0.383 1.559-0.383q 0.383,0 0.875,0.109l 1.367-1.367q-1.066-0.492 -2.242-0.492t-2.324,0.574l-0.793-1.586q 1.477-0.738 3.117-0.738q 1.887,0 3.527,0.957l 1.668-1.668q-2.516-1.039 -5.195-1.039zM 412.973,14.766
q-0.273,2.461 -2.023,4.197t-4.184,2.010zM 406,22.75q 4.43,0 7.916-2.488t 4.334-6.234q-0.383-1.641 -1.367-3.172l 1.449-1.449q 1.23,2.188 1.668,4.621q-0.629,3.445 -2.666,6.248t-5.018,4.389t-6.316,1.586q-1.969,0 -3.91-0.602l 2.926-2.926q 0.547,0.027 0.984,0.027z"></path><path d="M 475.043,22.422l-4.621,4.621q-0.93,0.957 -2.283,0.957t-2.311-0.957l-4.621-4.621q-0.875-0.875 -0.93-2.119t 0.711-2.201l 5.852,5.879q 0.547,0.52 1.299,0.52t 1.271-0.52l 2.57-2.57q 0.52-0.52 0.52-1.271t-0.52-1.299l-5.879-5.852q 0.957-0.766 2.201-0.711t 2.119,0.93l 4.621,4.621q 0.957,0.957 0.957,2.311t-0.957,2.283zM 457.324,9.324q 0.52-0.52 1.23-0.547t 1.203,0.465l 7.027,7.055
q 0.492,0.465 0.465,1.189t-0.547,1.244t-1.23,0.533t-1.203-0.451l-7.027-7.055q-0.492-0.492 -0.465-1.203t 0.547-1.23zM 457.16,4.047q-0.52-0.547 -1.271-0.547t-1.299,0.547l-2.543,2.543q-0.547,0.547 -0.547,1.299t 0.547,1.271l 5.852,5.852q-0.957,0.766 -2.201,0.711t-2.119-0.93l-4.621-4.621q-0.957-0.957 -0.957-2.311t 0.957-2.311l 4.621-4.594q 0.93-0.957 2.283-0.957t 2.311,0.957l 4.621,4.594
q 0.875,0.902 0.93,2.146t-0.711,2.201z"></path><path d="M 531.508,15.148l-5.414,7.109q-0.492,0.465 -1.189,0.465t-1.189-0.479t-0.492-1.176t 0.492-1.189l 4.512-5.906l-4.512-5.906q-0.492-0.492 -0.492-1.176t 0.492-1.176t 1.189-0.492t 1.189,0.492l 5.414,7.082q 0.492,0.492 0.492,1.176t-0.492,1.176zM 518,26.25q-0.027,0.082 -0.082,0.314t-0.082,0.314l-0.096,0.287t-0.137,0.287t-0.205,0.219t-0.287,0.191t-0.369,0.096t-0.492,0.041q-0.656,0 -1.258-0.684
t-0.438-1.313l 3.445-24.281q 0.465-1.75 2.625-1.75q 0.602,0 0.807,0.643t 0.014,1.354zM 512.285,22.244q-0.492,0.479 -1.189,0.479t-1.189-0.465l-5.414-7.109q-0.492-0.492 -0.492-1.176t 0.492-1.176l 5.414-7.082q 0.492-0.492 1.189-0.492t 1.189,0.492t 0.492,1.176t-0.492,1.176l-4.512,5.906l 4.512,5.906q 0.492,0.492 0.492,1.189t-0.492,1.176z"></path><path d="M 584.5,24.5l-10.5,3.5l-10.5-3.5l-1.75-24.5l 24.5,0 zM 565.25,3.5l 0.957,10.5l 11.293,0 l0,5.25 l-3.5,0.875l-3.5-0.875l0-3.5 l-4.129,0 l 0.629,7l 7,1.75l 7-1.75l 1.121-12.25l-11.621,0 l0-3.5 l 11.922,0 l 0.328-3.5l-17.5,0 z"></path><path d="M 640.5,24.5l-10.5,3.5l-10.5-3.5l-1.75-24.5l 24.5,0 zM 621.25,3.5l 0.328,3.5l 11.922,0 l0,3.5 l-11.621,0 l 0.328,3.5l 11.293,0 l0,5.25 l-3.5,0.875l-3.5-0.875l0-3.5 l-4.129,0 l 0.629,7l 7,1.75l 7-1.75l 1.75-19.25l-17.5,0 z"></path><path d="M 696.5,28l-3.5,0 q-0.711,0 -1.23-0.52t-0.52-1.244t 0.52-1.23t 1.23-0.506l 2.625,0 q 0.355,0 0.615-0.26t 0.26-0.615l0-19.25 q0-0.355 -0.26-0.615t-0.615-0.26l-2.625,0 q-0.711,0 -1.23-0.506t-0.52-1.23t 0.52-1.244t 1.23-0.52l 3.5,0 q 1.449,0 2.475,1.025t 1.025,2.475l0,21 q0,1.449 -1.025,2.475t-2.475,1.025zM 676.375,24.5l 2.625,0 q 0.711,0 1.23,0.506t 0.52,1.23t-0.52,1.244
t-1.23,0.52l-3.5,0 q-1.449,0 -2.475-1.025t-1.025-2.475l0-21 q0-1.449 1.025-2.475t 2.475-1.025l 3.5,0 q 0.711,0 1.23,0.52t 0.52,1.244t-0.52,1.23t-1.23,0.506l-2.625,0 q-0.355,0 -0.615,0.26t-0.26,0.615l0,19.25 q0,0.355 0.26,0.615t 0.615,0.26z"></path><path d="M 754.236,15.75q-0.725,0 -1.23,1.025t-0.506,2.475l0,5.25 q0,1.449 -1.025,2.475t-2.475,1.025l-1.75,0 q-0.738,0 -1.244-0.52t-0.506-1.244t 0.52-1.23t 1.23-0.506l 0.875,0 q 0.355,0 0.615-0.26t 0.26-0.615l0-6.125 q0-1.449 1.025-2.475t 2.475-1.025q-1.449,0 -2.475-1.025t-1.025-2.475l0-6.125 q0-0.355 -0.26-0.615t-0.615-0.26l-0.875,0 q-0.738,0 -1.244-0.52
t-0.506-1.244t 0.52-1.23t 1.23-0.506l 1.75,0 q 1.449,0 2.475,1.025t 1.025,2.475l0,5.25 q0,1.449 0.52,2.475t 1.23,1.025t 1.23,0.52t 0.52,1.23t-0.52,1.23t-1.244,0.52zM 735,17.5l0,6.125 q0,0.355 0.26,0.615t 0.615,0.26l 0.875,0 q 0.738,0 1.244,0.506t 0.506,1.23t-0.506,1.244t-1.244,0.52l-1.75,0 q-1.449,0 -2.475-1.025t-1.025-2.475l0-5.25 
q0-1.449 -0.506-2.475t-1.23-1.025t-1.244-0.52t-0.52-1.23t 0.52-1.23t 1.244-0.52t 1.23-1.025t 0.506-2.475l0-5.25 q0-1.449 1.025-2.475t 2.475-1.025l 1.75,0 q 0.738,0 1.244,0.506t 0.506,1.244t-0.506,1.244t-1.244,0.506l-0.875,0 q-0.355,0 -0.615,0.26t-0.26,0.615l0,6.125 q0,1.449 -1.025,2.475t-2.475,1.025q 1.449,0 2.475,1.025t 1.025,2.475z
"></path><path d="M 804.125,28l-4.375,0 l 7.875-14l-7.875-14l 4.375,0 l 7.875,14zM 791.875,28l-7.875-14l 7.875-14l 4.375,0 l-7.875,14l 7.875,14l-4.375,0 z"></path><path d="M 864.473,28l-20.973,0 q-0.738,0 -1.244-0.506t-0.506-1.244l0-24.473 q0-0.738 0.506-1.244t 1.244-0.506l 12.25,0 l0,9.625 q0,0.355 0.246,0.615t 0.629,0.26l 9.598,0 l0,0.027 l0,15.695 q0,0.738 -0.506,1.244t-1.244,0.506zM 857.5,0q 0.684,0 1.203,0.492l 7,7.027q 0.52,0.52 0.52,1.258l-8.723,0 l0-8.777 z"></path><path d="M 22.258,73.418l-6.945,0 l 3.883,8.094q 0.328,0.656 0.082,1.326t-0.916,0.984t-1.354,0.068t-1.012-0.875l-3.719-7.793l-5.25,5.25q-0.738,0 -1.258-0.52t-0.52-1.23l0-22.066 q0-0.41 0.479-0.574t 1.107,0t 1.066,0.574l 14.109,14.109q 0.355,0.355 0.588,0.984t 0.164,1.148t-0.506,0.52z"></path><path d="M 82.25,84l-8.75,0 q-0.738,0 -1.244-0.506t-0.506-1.244l0-8.75 q0-0.738 0.506-1.244t 1.244-0.506l 8.75,0 q 0.711,0 1.23,0.506t 0.52,1.244l0,8.75 q0,0.738 -0.52,1.244t-1.23,0.506zM 80.5,76.125q0-0.355 -0.26-0.615t-0.615-0.26l-3.5,0 q-0.355,0 -0.615,0.26t-0.26,0.615l0,3.5 q0,0.355 0.26,0.615t 0.615,0.26l 3.5,0 q 0.355,0 0.615-0.26t 0.26-0.615
l0-3.5 zM 82.25,68.25l-8.75,0 q-0.738,0 -1.244-0.52t-0.506-1.23l0-8.75 q0-0.738 0.506-1.244t 1.244-0.506l 8.75,0 q 0.711,0 1.23,0.506t 0.52,1.244l0,8.75 q0,0.711 -0.52,1.23t-1.23,0.52zM 80.5,60.375q0-0.355 -0.26-0.615t-0.615-0.26l-3.5,0 q-0.355,0 -0.615,0.26t-0.26,0.615l0,3.5 q0,0.355 0.26,0.615t 0.615,0.26l 3.5,0 q 0.355,0 0.615-0.26t 0.26-0.615l0-3.5 
zM 66.5,84l-8.75,0 q-0.711,0 -1.23-0.506t-0.52-1.244l0-8.75 q0-0.738 0.52-1.244t 1.23-0.506l 8.75,0 q 0.738,0 1.244,0.506t 0.506,1.244l0,8.75 q0,0.738 -0.52,1.244t-1.23,0.506zM 64.75,76.125q0-0.355 -0.26-0.615t-0.615-0.26l-3.5,0 q-0.355,0 -0.615,0.26t-0.26,0.615l0,3.5 q0,0.355 0.26,0.615t 0.615,0.26l 3.5,0 q 0.355,0 0.615-0.26t 0.26-0.615l0-3.5 z
M 66.5,68.25l-8.75,0 q-0.711,0 -1.23-0.52t-0.52-1.23l0-8.75 q0-0.738 0.52-1.244t 1.23-0.506l 8.75,0 q 0.738,0 1.244,0.506t 0.506,1.244l0,8.75 q0,0.711 -0.52,1.23t-1.23,0.52zM 64.75,60.375q0-0.355 -0.26-0.615t-0.615-0.26l-3.5,0 q-0.355,0 -0.615,0.26t-0.26,0.615l0,3.5 q0,0.355 0.26,0.615t 0.615,0.26l 3.5,0 q 0.355,0 0.615-0.26t 0.26-0.615l0-3.5 z"></path><path d="M 126,84q-3.801,0 -7.027-1.873t-5.1-5.1t-1.873-7.027q0-2.652 0.943-5.059t 2.666-4.293q 0.082-0.082 0.314-0.328t 0.383-0.396t 0.41-0.287t 0.533-0.137q 0.711,0 1.23,0.52t 0.52,1.23q0,0.438 -0.096,0.766t-0.205,0.438l-0.082,0.137q-1.477,1.449 -2.297,3.363t-0.82,4.047q0,2.844 1.408,5.264t 3.828,3.828t 5.264,1.408t 5.264-1.408t 3.828-3.828t 1.408-5.264
q0-2.133 -0.82-4.061t-2.27-3.377q-0.41-0.41 -0.41-1.313q0-0.711 0.52-1.23t 1.23-0.52q 0.191,0 0.369,0.055t 0.287,0.109t 0.287,0.219t 0.232,0.232t 0.246,0.287t 0.219,0.246q 1.723,1.887 2.666,4.293t 0.943,5.059q0,2.844 -1.107,5.441t-2.98,4.471t-4.471,2.98t-5.441,1.107zM 126,70q-0.738,0 -1.244-0.506t-0.506-1.244l0-10.5 q0-0.738 0.52-1.244t 1.244-0.506
t 1.23,0.506t 0.506,1.244l0,10.5 q0,0.738 -0.506,1.244t-1.244,0.506z"></path><path d="M 194.25,59.5l-1.75,0 l0,1.75 q0,2.707 -1.271,5.004t-3.432,3.746q 2.16,1.449 3.432,3.76t 1.271,4.99l0,1.75 l 1.75,0 q 0.711,0 1.23,0.506t 0.52,1.244t-0.52,1.244t-1.23,0.506l-24.5,0 q-0.711,0 -1.23-0.506t-0.52-1.23t 0.52-1.244t 1.23-0.52l 1.75,0 l0-1.75 q0-2.68 1.271-4.99t 3.432-3.76q-2.16-1.449 -3.432-3.746t-1.271-5.004l0-1.75 l-1.75,0 
q-0.711,0 -1.23-0.506t-0.52-1.23t 0.52-1.244t 1.23-0.52l 24.5,0 q 0.711,0 1.23,0.52t 0.52,1.244t-0.52,1.23t-1.23,0.506zM 175,78.75l0,1.75 l 14,0 q 0.055-0.246 0.055-0.533t-0.027-0.656t-0.027-0.561q0-2.898 -2.051-4.949t-4.949-2.051t-4.949,2.051t-2.051,4.949zM 189,59.5l-14,0 l0,1.75 q0,2.898 2.051,4.949t 4.949,2.051t 4.949-2.051t 2.051-4.949l0-1.75 z"></path><path d="M 227.445,56.191l 22.395,12.77q 0.438,0.246 0.438,1.080t-0.438,1.025l-22.395,12.77q-0.328,0.219 -0.82,0.15t-0.875-0.479l0-26.934 q 0.848-0.93 1.695-0.383z"></path><path d="M 307.125,78.75q 0.355,0 0.615,0.26t 0.26,0.615l0,3.5 q0,0.355 -0.26,0.615t-0.615,0.26l-3.5,0 q-0.355,0 -0.615-0.26t-0.26-0.615l0-0.875 l-5.25,0 l0,0.875 q0,0.355 -0.26,0.615t-0.615,0.26l-3.5,0 q-0.355,0 -0.615-0.26t-0.26-0.615l0-0.875 l-5.25,0 l0,0.875 q0,0.355 -0.26,0.615t-0.615,0.26l-3.5,0 q-0.355,0 -0.615-0.26t-0.26-0.615l0-3.5 
q0-0.355 0.26-0.615t 0.615-0.26l 0.875,0 l0-5.25 l-0.875,0 q-0.355,0 -0.615-0.26t-0.26-0.615l0-3.5 q0-0.355 0.26-0.615t 0.615-0.26l 0.875,0 l0-5.25 l-0.875,0 q-0.355,0 -0.615-0.26t-0.26-0.615l0-3.5 q0-0.355 0.26-0.615t 0.615-0.26l 3.5,0 q 0.355,0 0.615,0.26t 0.26,0.615l0,0.875 l 5.25,0 l0-0.875 q0-0.355 0.26-0.615t 0.615-0.26l 3.5,0 q 0.355,0 0.615,0.26t 0.26,0.615l0,0.875 l 5.25,0 l0-0.875 
q0-0.355 0.26-0.615t 0.615-0.26l 3.5,0 q 0.355,0 0.615,0.26t 0.26,0.615l0,3.5 q0,0.355 -0.26,0.615t-0.615,0.26l-0.875,0 l0,5.25 l 0.875,0 q 0.355,0 0.615,0.26t 0.26,0.615l0,3.5 q0,0.355 -0.26,0.615t-0.615,0.26l-0.875,0 l0,5.25 l 0.875,0 zM 294,81.813q0,0.191 0.123,0.314t 0.314,0.123l 0.875,0 q 0.191,0 0.314-0.123t 0.123-0.314l0-0.875 q0-0.191 -0.123-0.314t-0.314-0.123
l-0.875,0 q-0.191,0 -0.314,0.123t-0.123,0.314l0,0.875 zM 283.5,81.813q0,0.191 0.123,0.314t 0.314,0.123l 0.875,0 q 0.191,0 0.314-0.123t 0.123-0.314l0-0.875 q0-0.191 -0.123-0.314t-0.314-0.123l-0.875,0 q-0.191,0 -0.314,0.123t-0.123,0.314l0,0.875 zM 283.5,71.313q0,0.191 0.123,0.314t 0.314,0.123l 0.875,0 q 0.191,0 0.314-0.123t 0.123-0.314l0-0.875 q0-0.191 -0.123-0.314t-0.314-0.123l-0.875,0 
q-0.191,0 -0.314,0.123t-0.123,0.314l0,0.875 zM 285.25,59.938q0-0.191 -0.123-0.314t-0.314-0.123l-0.875,0 q-0.191,0 -0.314,0.123t-0.123,0.314l0,0.875 q0,0.191 0.123,0.314t 0.314,0.123l 0.875,0 q 0.191,0 0.314-0.123t 0.123-0.314l0-0.875 zM 295.75,59.938q0-0.191 -0.123-0.314t-0.314-0.123l-0.875,0 q-0.191,0 -0.314,0.123t-0.123,0.314l0,0.875 q0,0.191 0.123,0.314t 0.314,0.123l 0.875,0 
q 0.191,0 0.314-0.123t 0.123-0.314l0-0.875 zM 302.75,62.125l0-0.875 l-5.25,0 l0,0.875 q0,0.355 -0.26,0.615t-0.615,0.26l-3.5,0 q-0.355,0 -0.615-0.26t-0.26-0.615l0-0.875 l-5.25,0 l0,0.875 q0,0.355 -0.26,0.615t-0.615,0.26l-0.875,0 l0,5.25 l 0.875,0 q 0.355,0 0.615,0.26t 0.26,0.615l0,3.5 q0,0.355 -0.26,0.615t-0.615,0.26l-0.875,0 l0,5.25 l 0.875,0 q 0.355,0 0.615,0.26t 0.26,0.615
l0,0.875 l 5.25,0 l0-0.875 q0-0.355 0.26-0.615t 0.615-0.26l 3.5,0 q 0.355,0 0.615,0.26t 0.26,0.615l0,0.875 l 5.25,0 l0-0.875 q0-0.355 0.26-0.615t 0.615-0.26l 0.875,0 l0-5.25 l-0.875,0 q-0.355,0 -0.615-0.26t-0.26-0.615l0-3.5 q0-0.355 0.26-0.615t 0.615-0.26l 0.875,0 l0-5.25 l-0.875,0 q-0.355,0 -0.615-0.26t-0.26-0.615zM 306.25,59.938q0-0.191 -0.123-0.314t-0.314-0.123l-0.875,0 q-0.191,0 -0.314,0.123
t-0.123,0.314l0,0.875 q0,0.191 0.123,0.314t 0.314,0.123l 0.875,0 q 0.191,0 0.314-0.123t 0.123-0.314l0-0.875 zM 306.25,70.438q0-0.191 -0.123-0.314t-0.314-0.123l-0.875,0 q-0.191,0 -0.314,0.123t-0.123,0.314l0,0.875 q0,0.191 0.123,0.314t 0.314,0.123l 0.875,0 q 0.191,0 0.314-0.123t 0.123-0.314l0-0.875 zM 305.813,80.5l-0.875,0 q-0.191,0 -0.314,0.123t-0.123,0.314l0,0.875 q0,0.191 0.123,0.314
t 0.314,0.123l 0.875,0 q 0.191,0 0.314-0.123t 0.123-0.314l0-0.875 q0-0.191 -0.123-0.314t-0.314-0.123zM 295.313,71.75l-0.875,0 q-0.191,0 -0.314-0.123t-0.123-0.314l0-0.875 q0-0.191 0.123-0.314t 0.314-0.123l 0.875,0 q 0.191,0 0.314,0.123t 0.123,0.314l0,0.875 q0,0.191 -0.123,0.314t-0.314,0.123z"></path><path d="M 363.385,83.385q-0.615,0.615 -1.49,0.615t-1.477-0.629l-1.531-1.504l-4.512-1.367q-1.395-0.055 -2.379-1.039l-6.891-6.863l-1.176,1.176q-0.602,0.602 -1.477,0.602t-1.49-0.615t-0.615-1.477t 0.629-1.49l 0.137-0.137l-3.145-3.145q-1.969-1.969 -1.969-4.758t 1.969-4.758t 4.758-1.969t 4.758,1.969l 3.145,3.145l 0.137-0.137q 0.602-0.629 1.477-0.629t 1.49,0.615t 0.615,1.49t-0.602,1.504l-1.148,1.148
l 6.863,6.863q 1.012,0.984 1.012,2.406l 1.34,4.43l 1.586,1.586q 0.602,0.602 0.602,1.477t-0.615,1.49zM 356.371,73.418l-6.016-6.016l-3.008,2.98l 6.016,6.043q 0.629,0.629 1.504,0.629t 1.49-0.629t 0.615-1.504t-0.602-1.504z"></path><path d="M 418.264,64.75q-0.725,0 -1.244-0.52t-0.52-1.23q0-1.449 -1.025-2.475t-2.475-1.025l-1.75,0 q-0.711,0 -1.23,0.506t-0.52,1.244l0,17.5 q0,0.711 0.52,1.23t 1.244,0.52t 1.23,0.506t 0.506,1.23t-0.506,1.244t-1.244,0.52l-10.5,0 q-0.711,0 -1.23-0.506t-0.52-1.244t 0.52-1.244t 1.244-0.506t 1.23-0.52t 0.506-1.23l0-17.5 q0-0.738 -0.506-1.244t-1.244-0.506
l-1.75,0 q-1.449,0 -2.475,1.025t-1.025,2.475q0,0.711 -0.506,1.23t-1.23,0.52t-1.244-0.52t-0.52-1.23l0-5.25 q0-0.711 0.52-1.23t 1.23-0.52l 24.5,0 q 0.711,0 1.23,0.52t 0.52,1.23l0,5.25 q0,0.738 -0.506,1.244t-1.23,0.506z"></path><path d="M 475.234,83.098q-0.766,0.902 -1.859,0.902t-1.859-0.902t-0.766-2.16t 0.766-2.16l 0.984-1.395l0-5.387 q0,0.711 -0.465,1.176l-9.898,9.926q-0.93,0.902 -2.215,0.902t-2.215-0.902l-8.805-8.805q-0.902-0.93 -0.902-2.215t 0.902-2.215l 7.848-7.82l0,2.734 q0,1.449 1.025,2.475t 2.475,1.025t 2.475-1.025t 1.025-2.475l0-2.078 l 7.328,7.328l 1.422,0 q 0.738,0 1.244,0.506t 0.506,1.244l0,1.586 l0,4.020 l 0.984,1.395
q 0.766,0.902 0.766,2.16t-0.766,2.16zM 460.264,66.527q-0.725,0 -1.244-0.52t-0.52-1.23l0-7 q0-0.738 0.52-1.244t 1.244-0.506t 1.23,0.506t 0.506,1.244l0,7 q0,0.711 -0.506,1.23t-1.23,0.52z"></path><path d="M 530.25,84l-1.75,0 q-0.738,0 -1.244-0.52t-0.506-1.23l0-1.75 q0-0.738 0.506-1.244t 1.244-0.506q0-3.035 -2.010-5.264t-4.99-2.557l0,0.82 q0,0.711 -0.506,1.23t-1.244,0.52l-3.5,0 q-0.738,0 -1.244-0.52t-0.506-1.23l0-0.93 q-3.691-0.328 -6.221-3.076t-2.529-6.494q-0.711,0 -1.23-0.52t-0.52-1.23l0-1.75 q0-0.738 0.52-1.244t 1.23-0.506l 1.75,0 q 0.738,0 1.244,0.506
t 0.506,1.244l0,1.75 q0,0.711 -0.52,1.23t-1.23,0.52q0,3.035 2.010,5.264t 4.99,2.557l0-0.82 q0-0.738 0.506-1.244t 1.244-0.506l 3.5,0 q 0.738,0 1.244,0.506t 0.506,1.244l0,0.93 q 3.691,0.328 6.221,3.076t 2.529,6.494q 0.711,0 1.23,0.506t 0.52,1.244l0,1.75 q0,0.738 -0.52,1.244t-1.23,0.506zM 517.986,68.25q-0.725,0 -1.23,0.52
t-0.506,1.244t 0.506,1.23t 1.23,0.506t 1.244-0.506t 0.52-1.23t-0.52-1.244t-1.244-0.52z"></path><path d="M 587.426,57.695l-7.164,8.832l 6.863,0 q 0.355,0 0.615,0.246t 0.26,0.615t-0.26,0.615t-0.615,0.246l-8.75,0 q-0.355,0 -0.615-0.232t-0.26-0.643q0-0.164 0.109-0.328t 0.178-0.219t 0.287-0.246l 7.191-8.805l-6.891,0 q-0.355,0 -0.615-0.26t-0.26-0.615t 0.26-0.615t 0.615-0.26l 8.75,0 q 0.301,0 0.588,0.246t 0.287,0.602q0,0.273 -0.574,0.82zM 565.961,83.754q-0.301,0.246 -0.711,0.246t-0.711-0.246
l-4.238-5.633q-0.301-0.219 -0.301-0.547t 0.301-0.547l 3.227,0 l0-19.25 q0-0.738 0.506-1.244t 1.23-0.506t 1.244,0.506t 0.52,1.244l0,19.25 l 3.199,0 q 0.273,0.219 0.273,0.547t-0.273,0.547zM 581,71.75l 3.5,0 q 1.449,0 2.475,1.025t 1.025,2.475l0,7.875 q0,0.355 -0.26,0.615t-0.615,0.26t-0.615-0.26t-0.26-0.615l0-2.188 q0-0.191 -0.123-0.314t-0.314-0.123l-6.125,0 q-0.164,0 -0.301,0.123
t-0.137,0.314l0,2.188 q0,0.355 -0.246,0.615t-0.615,0.26t-0.629-0.26t-0.26-0.615l0-7.875 q0-1.449 1.025-2.475t 2.475-1.025zM 579.25,78.313q0,0.191 0.137,0.314t 0.301,0.123l 6.125,0 q 0.191,0 0.314-0.123t 0.123-0.314l0-3.063 q0-0.711 -0.52-1.23t-1.23-0.52l-3.5,0 q-0.711,0 -1.23,0.52t-0.52,1.23l0,3.063 z"></path><path d="M 636.262,82.25l 6.863,0 q 0.355,0 0.615,0.26t 0.26,0.615t-0.26,0.615t-0.615,0.26l-8.75,0 q-0.355,0 -0.615-0.246t-0.26-0.629q0-0.164 0.109-0.342t 0.178-0.219t 0.287-0.26l 7.191-8.805l-6.891,0 q-0.355,0 -0.615-0.246t-0.26-0.615t 0.26-0.629t 0.615-0.26l 8.75,0 q 0.301,0 0.588,0.26t 0.287,0.615q0,0.273 -0.547,0.82zM 643.125,68.277q-0.355,0 -0.615-0.26t-0.26-0.615l0-2.188 
q0-0.191 -0.123-0.314t-0.314-0.123l-6.125,0 q-0.164,0 -0.301,0.123t-0.137,0.314l0,2.188 q0,0.355 -0.246,0.615t-0.615,0.26t-0.629-0.26t-0.26-0.615l0-7.875 q0-1.449 1.025-2.475t 2.475-1.025l 3.5,0 q 1.449,0 2.475,1.025t 1.025,2.475l0,7.875 q0,0.355 -0.26,0.615t-0.615,0.26zM 642.25,59.527q0-0.738 -0.52-1.244t-1.23-0.506l-3.5,0 q-0.711,0 -1.23,0.506
t-0.52,1.244l0,3.063 q0,0.164 0.137,0.301t 0.301,0.137l 6.125,0 q 0.191,0 0.314-0.137t 0.123-0.301l0-3.063 zM 621.961,83.781q-0.301,0.219 -0.711,0.219t-0.711-0.219l-4.238-5.66q-0.301-0.219 -0.301-0.547t 0.301-0.547l 3.227,0 l0-19.25 q0-0.738 0.506-1.244t 1.23-0.506t 1.244,0.506t 0.52,1.244l0,19.25 l 3.172,0 q 0.301,0.219 0.301,0.547t-0.301,0.547z"></path><path d="M 698.25,82.25l-10.5,0 q-0.711,0 -1.23-0.506t-0.52-1.23t 0.52-1.244t 1.23-0.52l 10.5,0 q 0.738,0 1.244,0.52t 0.506,1.244t-0.506,1.23t-1.244,0.506zM 694.75,75.25l-7,0 q-0.711,0 -1.23-0.506t-0.52-1.23t 0.52-1.23t 1.23-0.506l 7,0 q 0.738,0 1.244,0.506t 0.506,1.23t-0.506,1.23t-1.244,0.506zM 691.25,68.277l-3.5,0 q-0.711,0 -1.23-0.52t-0.52-1.244t 0.52-1.23t 1.23-0.506
l 3.5,0 q 0.738,0 1.244,0.506t 0.506,1.23t-0.506,1.244t-1.244,0.52zM 687.764,61.277q-0.725,0 -1.244-0.52t-0.52-1.244t 0.52-1.23t 1.244-0.506t 1.23,0.52t 0.506,1.23t-0.506,1.23t-1.23,0.52zM 677.961,83.781q-0.301,0.219 -0.711,0.219t-0.711-0.219l-4.238-5.66q-0.301-0.219 -0.301-0.547t 0.301-0.547l 3.227,0 l0-19.25 q0-0.711 0.506-1.23t 1.23-0.52t 1.244,0.52t 0.52,1.23l0,19.25 l 3.199,0 
q 0.273,0.219 0.273,0.547t-0.273,0.547z"></path><path d="M 754.25,61.277l-10.5,0 q-0.711,0 -1.23-0.52t-0.52-1.244t 0.52-1.23t 1.23-0.506l 10.5,0 q 0.738,0 1.244,0.52t 0.506,1.23t-0.506,1.23t-1.244,0.52zM 733.961,83.781q-0.301,0.219 -0.711,0.219t-0.711-0.219l-4.238-5.66q-0.301-0.219 -0.301-0.547t 0.301-0.547l 3.227,0 l0-19.25 q0-0.711 0.506-1.23t 1.23-0.52t 1.244,0.52t 0.52,1.23l0,19.25 l 3.199,0 q 0.273,0.219 0.273,0.547t-0.273,0.547zM 743.75,64.777l 7,0 
q 0.738,0 1.244,0.506t 0.506,1.23t-0.506,1.244t-1.244,0.52l-7,0 q-0.711,0 -1.23-0.52t-0.52-1.244t 0.52-1.23t 1.23-0.506zM 743.75,71.777l 3.5,0 q 0.738,0 1.244,0.506t 0.506,1.23t-0.506,1.23t-1.244,0.506l-3.5,0 q-0.711,0 -1.23-0.506t-0.52-1.23t 0.52-1.23t 1.23-0.506zM 743.764,78.75q 0.725,0 1.23,0.52t 0.506,1.244t-0.506,1.23t-1.23,0.506
t-1.244-0.506t-0.52-1.23t 0.52-1.244t 1.244-0.52z"></path><path d="M 810.25,71.75l0,3.5 q0,0.738 -0.52,1.244t-1.23,0.506l-7,0 q-0.711,0 -1.23-0.506t-0.52-1.244l0-3.5 l-3.5,0 l0,7 q0,0.738 -0.506,1.244t-1.244,0.506l-7,0 q-0.711,0 -1.23-0.506t-0.52-1.244l0-7 q-0.711,0 -1.23-0.506t-0.52-1.23t 0.52-1.244t 1.23-0.52l0-7 q0-0.711 0.52-1.23t 1.23-0.52l 7,0 q 0.738,0 1.244,0.52t 0.506,1.23l0,7 l 3.5,0 l0-3.5 
q0-0.711 0.52-1.23t 1.23-0.52l 7,0 q 0.711,0 1.23,0.52t 0.52,1.23l0,3.5 q 0.711,0 1.23,0.52t 0.52,1.244t-0.506,1.23t-1.244,0.506zM 806.75,67.375q0-0.355 -0.26-0.615t-0.615-0.26l-1.75,0 q-0.355,0 -0.615,0.26t-0.26,0.615l0,5.25 q0,0.355 0.26,0.615t 0.615,0.26l 1.75,0 q 0.355,0 0.615-0.26t 0.26-0.615l0-5.25 z"></path><path d="M 862.75,82.25l-7,0 q0,0.711 -0.506,1.23t-1.23,0.52t-1.244-0.52t-0.52-1.23l-7,0 q-0.711,0 -1.23-0.506t-0.52-1.244l0-7 q0-0.711 0.52-1.23t 1.23-0.52l 7,0 l0-3.5 l-3.5,0 q-0.711,0 -1.23-0.506t-0.52-1.244l0-7 q0-0.711 0.52-1.23t 1.23-0.52l 3.5,0 q0-0.711 0.52-1.23t 1.244-0.52t 1.23,0.52t 0.506,1.23l 3.5,0 q 0.738,0 1.244,0.52t 0.506,1.23l0,7 q0,0.738 -0.506,1.244
t-1.244,0.506l-3.5,0 l0,3.5 l 7,0 q 0.738,0 1.244,0.52t 0.506,1.23l0,7 q0,0.738 -0.506,1.244t-1.244,0.506zM 856.625,64.75q 0.355,0 0.615-0.26t 0.26-0.615l0-1.75 q0-0.355 -0.26-0.615t-0.615-0.26l-5.25,0 q-0.355,0 -0.615,0.26t-0.26,0.615l0,1.75 q0,0.355 0.26,0.615t 0.615,0.26l 5.25,0 z"></path><path d="M 26.25,140l-24.5,0 q-0.711,0 -1.23-0.52t-0.52-1.244t 0.52-1.23t 1.23-0.506l 24.5,0 q 0.711,0 1.23,0.506t 0.52,1.23t-0.52,1.244t-1.23,0.52zM 24.5,133l-7,0 q-0.738,0 -1.244-0.52t-0.506-1.23l0-10.5 q0-0.738 0.506-1.244t 1.244-0.506l 7,0 q 0.711,0 1.23,0.506t 0.52,1.244l0,10.5 q0,0.738 -0.52,1.244t-1.23,0.506zM 22.75,123.375q0-0.355 -0.26-0.615t-0.615-0.26
l-1.75,0 q-0.355,0 -0.615,0.26t-0.26,0.615l0,5.25 q0,0.355 0.26,0.615t 0.615,0.26l 1.75,0 q 0.355,0 0.615-0.26t 0.26-0.615l0-5.25 zM 10.5,133l-7,0 q-0.738,0 -1.244-0.52t-0.506-1.23l0-17.5 q0-0.711 0.506-1.23t 1.244-0.52l 7,0 q 0.711,0 1.23,0.52t 0.52,1.23l0,17.5 q0,0.738 -0.52,1.244t-1.23,0.506z"></path><path d="M 82.25,115.5l-24.5,0 q-0.711,0 -1.23-0.506t-0.52-1.23t 0.506-1.244t 1.244-0.52l 24.5,0 q 0.711,0 1.23,0.52t 0.52,1.244t-0.506,1.23t-1.244,0.506zM 59.5,119l 7,0 q 0.738,0 1.244,0.506t 0.506,1.244l0,17.5 q0,0.711 -0.506,1.23t-1.244,0.52l-7,0 q-0.711,0 -1.23-0.52t-0.52-1.23l0-17.5 q0-0.738 0.52-1.244t 1.23-0.506zM 73.5,119l 7,0 q 0.738,0 1.244,0.506
t 0.506,1.244l0,10.5 q0,0.711 -0.506,1.23t-1.244,0.52l-7,0 q-0.711,0 -1.23-0.52t-0.52-1.23l0-10.5 q0-0.738 0.52-1.244t 1.23-0.506zM 75.25,128.625q0,0.355 0.26,0.615t 0.615,0.26l 1.75,0 q 0.355,0 0.615-0.26t 0.26-0.615l0-5.25 q0-0.355 -0.26-0.615t-0.615-0.26l-1.75,0 q-0.355,0 -0.615,0.26t-0.26,0.615l0,5.25 z"></path><path d="M 138.236,140q-0.725,0 -1.23-0.52t-0.506-1.23l0-24.5 q0-0.711 0.506-1.23t 1.23-0.52t 1.244,0.52t 0.52,1.23l0,24.5 q0,0.738 -0.52,1.244t-1.244,0.506zM 131.25,138.25l-17.5,0 q-0.738,0 -1.244-0.506t-0.506-1.244l0-7 q0-0.711 0.506-1.23t 1.244-0.52l 17.5,0 q 0.711,0 1.23,0.52t 0.52,1.23l0,7 q0,0.738 -0.52,1.244t-1.23,0.506zM 131.25,124.25l-10.5,0 
q-0.738,0 -1.244-0.506t-0.506-1.244l0-7 q0-0.711 0.506-1.23t 1.244-0.52l 10.5,0 q 0.711,0 1.23,0.52t 0.52,1.23l0,7 q0,0.738 -0.52,1.244t-1.23,0.506zM 129.5,118.125q0-0.355 -0.26-0.615t-0.615-0.26l-5.25,0 q-0.355,0 -0.615,0.26t-0.26,0.615l0,1.75 q0,0.355 0.26,0.615t 0.615,0.26l 5.25,0 q 0.355,0 0.615-0.26t 0.26-0.615l0-1.75 z"></path><path d="M 194.25,138.25l-17.5,0 q-0.738,0 -1.244-0.506t-0.506-1.244l0-7 q0-0.711 0.506-1.23t 1.244-0.52l 17.5,0 q 0.711,0 1.23,0.52t 0.52,1.23l0,7 q0,0.738 -0.52,1.244t-1.23,0.506zM 187.25,124.25l-10.5,0 q-0.738,0 -1.244-0.506t-0.506-1.244l0-7 q0-0.711 0.506-1.23t 1.244-0.52l 10.5,0 q 0.711,0 1.23,0.52t 0.52,1.23l0,7 q0,0.738 -0.52,1.244t-1.23,0.506zM 185.5,118.125
q0-0.355 -0.26-0.615t-0.615-0.26l-5.25,0 q-0.355,0 -0.615,0.26t-0.26,0.615l0,1.75 q0,0.355 0.26,0.615t 0.615,0.26l 5.25,0 q 0.355,0 0.615-0.26t 0.26-0.615l0-1.75 zM 169.75,140q-0.738,0 -1.244-0.52t-0.506-1.23l0-24.5 q0-0.711 0.506-1.23t 1.244-0.52t 1.244,0.52t 0.506,1.23l0,24.5 q0,0.738 -0.506,1.244t-1.244,0.506z"></path><path d="M 250.25,122.5l-24.5,0 q-0.738,0 -1.244-0.506t-0.506-1.23t 0.506-1.244t 1.244-0.52l 24.5,0 q 0.711,0 1.23,0.52t 0.52,1.244t-0.52,1.23t-1.23,0.506zM 245,117.25l-19.25,0 q-0.738,0 -1.244-0.506t-0.506-1.23t 0.506-1.244t 1.244-0.52l 19.25,0 q 0.711,0 1.23,0.52t 0.52,1.244t-0.506,1.23t-1.244,0.506zM 225.75,124.25l 21,0 q 0.711,0 1.23,0.52t 0.52,1.244t-0.52,1.23
t-1.23,0.506l-21,0 q-0.738,0 -1.244-0.506t-0.506-1.23t 0.506-1.244t 1.244-0.52zM 225.75,129.5l 22.75,0 q 0.738,0 1.244,0.52t 0.506,1.244t-0.506,1.23t-1.244,0.506l-22.75,0 q-0.738,0 -1.244-0.506t-0.506-1.244t 0.506-1.244t 1.244-0.506zM 225.75,134.75l 10.5,0 q 0.711,0 1.23,0.52t 0.52,1.244t-0.52,1.23t-1.23,0.506l-10.5,0 q-0.738,0 -1.244-0.506
t-0.506-1.244t 0.506-1.244t 1.244-0.506z"></path><path d="M 306.25,133l-22.75,0 q-0.738,0 -1.244-0.506t-0.506-1.23t 0.506-1.244t 1.244-0.52l 22.75,0 q 0.711,0 1.23,0.52t 0.52,1.244t-0.52,1.23t-1.23,0.506zM 306.25,127.75l-21,0 q-0.738,0 -1.244-0.506t-0.506-1.23t 0.506-1.244t 1.244-0.52l 21,0 q 0.711,0 1.23,0.52t 0.52,1.244t-0.52,1.23t-1.23,0.506zM 306.25,122.5l-24.5,0 q-0.738,0 -1.244-0.506t-0.506-1.23t 0.506-1.244
t 1.244-0.52l 24.5,0 q 0.711,0 1.23,0.52t 0.52,1.244t-0.52,1.23t-1.23,0.506zM 306.25,117.25l-19.25,0 q-0.738,0 -1.244-0.506t-0.506-1.23t 0.506-1.244t 1.244-0.52l 19.25,0 q 0.711,0 1.23,0.52t 0.52,1.244t-0.52,1.23t-1.23,0.506zM 295.75,134.75l 10.5,0 q 0.711,0 1.23,0.52t 0.52,1.244t-0.52,1.23t-1.23,0.506l-10.5,0 q-0.738,0 -1.244-0.506t-0.506-1.244t 0.506-1.244
t 1.244-0.506z"></path><path d="M 362.25,122.5l-24.5,0 q-0.738,0 -1.244-0.506t-0.506-1.23t 0.506-1.244t 1.244-0.52l 24.5,0 q 0.711,0 1.23,0.52t 0.52,1.244t-0.52,1.23t-1.23,0.506zM 358.75,117.25l-17.5,0 q-0.738,0 -1.244-0.506t-0.506-1.23t 0.506-1.244t 1.244-0.52l 17.5,0 q 0.711,0 1.23,0.52t 0.52,1.244t-0.52,1.23t-1.23,0.506zM 339.5,127.75q-0.738,0 -1.244-0.506t-0.506-1.23t 0.506-1.244
t 1.244-0.52l 21,0 q 0.711,0 1.23,0.52t 0.52,1.244t-0.52,1.23t-1.23,0.506l-21,0 zM 337.75,129.5l 24.5,0 q 0.711,0 1.23,0.52t 0.52,1.244t-0.52,1.23t-1.23,0.506l-24.5,0 q-0.738,0 -1.244-0.506t-0.506-1.244t 0.506-1.244t 1.244-0.506zM 344.75,134.75l 10.5,0 q 0.711,0 1.23,0.52t 0.52,1.244t-0.52,1.23t-1.23,0.506l-10.5,0 q-0.738,0 -1.244-0.506t-0.506-1.244
t 0.506-1.244t 1.244-0.506z"></path><path d="M 418.25,127.75l-24.5,0 q-0.738,0 -1.244-0.506t-0.506-1.23t 0.506-1.244t 1.244-0.52l 24.5,0 q 0.711,0 1.23,0.52t 0.52,1.244t-0.52,1.23t-1.23,0.506zM 418.25,122.5l-24.5,0 q-0.738,0 -1.244-0.506t-0.506-1.23t 0.506-1.244t 1.244-0.52l 24.5,0 q 0.711,0 1.23,0.52t 0.52,1.244t-0.52,1.23t-1.23,0.506zM 418.25,117.25l-24.5,0 q-0.738,0 -1.244-0.506t-0.506-1.23t 0.506-1.244
t 1.244-0.52l 24.5,0 q 0.711,0 1.23,0.52t 0.52,1.244t-0.52,1.23t-1.23,0.506zM 393.75,129.5l 24.5,0 q 0.711,0 1.23,0.52t 0.52,1.244t-0.52,1.23t-1.23,0.506l-24.5,0 q-0.738,0 -1.244-0.506t-0.506-1.244t 0.506-1.244t 1.244-0.506zM 393.75,134.75l 10.5,0 q 0.711,0 1.23,0.52t 0.52,1.244t-0.52,1.23t-1.23,0.506l-10.5,0 q-0.738,0 -1.244-0.506t-0.506-1.244t 0.506-1.244
t 1.244-0.506z"></path><path d="M 474.25,120.75l-5.25,0 l0,1.75 q0,0.738 -0.52,1.244t-1.23,0.506l-10.5,0 q-0.738,0 -1.244-0.506t-0.506-1.244l0-1.75 l-5.25,0 q-0.711,0 -1.23-0.506t-0.52-1.23t 0.506-1.244t 1.244-0.52l 5.25,0 l0-1.75 q0-0.711 0.506-1.23t 1.244-0.52l 10.5,0 q 0.711,0 1.23,0.52t 0.52,1.23l0,1.75 l 5.25,0 q 0.711,0 1.23,0.52t 0.52,1.244t-0.52,1.23t-1.23,0.506zM 465.5,118.125q0-0.355 -0.26-0.615
t-0.615-0.26l-5.25,0 q-0.355,0 -0.615,0.26t-0.26,0.615l0,1.75 q0,0.355 0.26,0.615t 0.615,0.26l 5.25,0 q 0.355,0 0.615-0.26t 0.26-0.615l0-1.75 zM 449.75,131.25l 1.75,0 l0-1.75 q0-0.738 0.52-1.244t 1.23-0.506l 17.5,0 q 0.711,0 1.23,0.52t 0.52,1.23l0,1.75 l 1.75,0 q 0.711,0 1.23,0.506t 0.52,1.244t-0.506,1.244t-1.244,0.506l-1.75,0 l0,1.75 q0,0.711 -0.52,1.23t-1.23,0.52l-17.5,0 
q-0.711,0 -1.23-0.52t-0.52-1.23l0-1.75 l-1.75,0 q-0.711,0 -1.23-0.506t-0.52-1.244t 0.52-1.244t 1.23-0.506z"></path><path d="M 528.5,133l-1.75,0 l0,5.25 q0,0.711 -0.506,1.23t-1.23,0.52t-1.244-0.52t-0.52-1.23l0-5.25 l-1.75,0 q-0.738,0 -1.244-0.52t-0.506-1.23l0-10.5 q0-0.738 0.506-1.244t 1.244-0.506l 1.75,0 l0-5.25 q0-0.711 0.52-1.23t 1.244-0.52t 1.23,0.52t 0.506,1.23l0,5.25 l 1.75,0 q 0.738,0 1.244,0.506t 0.506,1.244l0,10.5 q0,0.738 -0.506,1.244t-1.244,0.506zM 526.75,123.375
q0-0.355 -0.26-0.615t-0.615-0.26l-1.75,0 q-0.355,0 -0.615,0.26t-0.26,0.615l0,5.25 q0,0.355 0.26,0.615t 0.615,0.26l 1.75,0 q 0.355,0 0.615-0.26t 0.26-0.615l0-5.25 zM 514.5,136.5l-1.75,0 l0,1.75 q0,0.711 -0.506,1.23t-1.23,0.52t-1.244-0.52t-0.52-1.23l0-1.75 l-1.75,0 q-0.711,0 -1.23-0.52t-0.52-1.23l0-17.5 q0-0.738 0.52-1.244t 1.23-0.506l 1.75,0 l0-1.75 q0-0.711 0.52-1.23t 1.244-0.52
t 1.23,0.52t 0.506,1.23l0,1.75 l 1.75,0 q 0.738,0 1.244,0.506t 0.506,1.244l0,17.5 q0,0.738 -0.506,1.244t-1.244,0.506z"></path><path d="M 587.125,134.75q 0.355,0 0.615,0.26t 0.26,0.615l0,3.5 q0,0.355 -0.26,0.615t-0.615,0.26l-3.5,0 q-0.355,0 -0.615-0.26t-0.26-0.615l0-0.875 l-17.5,0 l0,0.875 q0,0.355 -0.26,0.615t-0.615,0.26l-3.5,0 q-0.355,0 -0.615-0.26t-0.26-0.615l0-3.5 q0-0.355 0.26-0.615t 0.615-0.26l 0.875,0 l0-17.5 l-0.875,0 q-0.355,0 -0.615-0.26t-0.26-0.615l0-3.5 q0-0.355 0.26-0.615
t 0.615-0.26l 3.5,0 q 0.355,0 0.615,0.26t 0.26,0.615l0,0.875 l 17.5,0 l0-0.875 q0-0.355 0.26-0.615t 0.615-0.26l 3.5,0 q 0.355,0 0.615,0.26t 0.26,0.615l0,3.5 q0,0.355 -0.26,0.615t-0.615,0.26l-0.875,0 l0,17.5 l 0.875,0 zM 561.75,137.813q0,0.191 0.123,0.314t 0.314,0.123l 0.875,0 q 0.191,0 0.314-0.123t 0.123-0.314l0-0.875 q0-0.191 -0.123-0.314t-0.314-0.123l-0.875,0 q-0.191,0 -0.314,0.123
t-0.123,0.314l0,0.875 zM 563.5,114.188q0-0.191 -0.123-0.314t-0.314-0.123l-0.875,0 q-0.191,0 -0.314,0.123t-0.123,0.314l0,0.875 q0,0.191 0.123,0.314t 0.314,0.123l 0.875,0 q 0.191,0 0.314-0.123t 0.123-0.314l0-0.875 zM 582.75,116.375l0-0.875 l-17.5,0 l0,0.875 q0,0.355 -0.26,0.615t-0.615,0.26l-0.875,0 l0,17.5 l 0.875,0 q 0.355,0 0.615,0.26t 0.26,0.615l0,0.875 l 17.5,0 l0-0.875 q0-0.355 0.26-0.615
t 0.615-0.26l 0.875,0 l0-17.5 l-0.875,0 q-0.355,0 -0.615-0.26t-0.26-0.615zM 586.25,114.188q0-0.191 -0.123-0.314t-0.314-0.123l-0.875,0 q-0.191,0 -0.314,0.123t-0.123,0.314l0,0.875 q0,0.191 0.123,0.314t 0.314,0.123l 0.875,0 q 0.191,0 0.314-0.123t 0.123-0.314l0-0.875 zM 585.813,136.5l-0.875,0 q-0.191,0 -0.314,0.123t-0.123,0.314l0,0.875 q0,0.191 0.123,0.314t 0.314,0.123l 0.875,0 q 0.191,0 0.314-0.123
t 0.123-0.314l0-0.875 q0-0.191 -0.123-0.314t-0.314-0.123zM 573.043,128.816l 4.074-4.102q 0.492-0.492 1.271-0.492t 1.271,0.492l 1.34,1.34l0,6.945 l-3.828,0 zM 569.625,124.25q-1.094,0 -1.859-0.766t-0.766-1.859t 0.766-1.859t 1.859-0.766t 1.859,0.766t 0.766,1.859t-0.766,1.859t-1.859,0.766zM 570.035,128.242l 4.73,4.758l-7.766,0 l0-4.266 l 0.492-0.492q 0.492-0.52 1.271-0.52t 1.271,0.52z"></path><path d="M 643.125,122.5l-10.5,0 q-0.355,0 -0.615-0.26t-0.26-0.615t 0.26-0.615t 0.615-0.26l 10.5,0 q 0.355,0 0.615,0.26t 0.26,0.615t-0.26,0.615t-0.615,0.26zM 632.625,117.25l 7,0 q 0.355,0 0.615,0.26t 0.26,0.615t-0.26,0.615t-0.615,0.26l-7,0 q-0.355,0 -0.615-0.26t-0.26-0.615t 0.26-0.615t 0.615-0.26zM 643.125,115.5l-10.5,0 q-0.355,0 -0.615-0.26
t-0.26-0.615t 0.26-0.615t 0.615-0.26l 10.5,0 q 0.355,0 0.615,0.26t 0.26,0.615t-0.26,0.615t-0.615,0.26zM 628.25,126l-10.5,0 q-0.738,0 -1.244-0.52t-0.506-1.23l0-8.75 q0-0.711 0.506-1.23t 1.244-0.52l 10.5,0 q 0.711,0 1.23,0.52t 0.52,1.23l0,8.75 q0,0.711 -0.52,1.23t-1.23,0.52zM 632.625,126q-0.355,0 -0.615-0.26t-0.26-0.615t 0.26-0.615t 0.615-0.26l 8.75,0 
q 0.355,0 0.615,0.26t 0.26,0.615t-0.26,0.615t-0.615,0.26l-8.75,0 zM 616.875,127.75l 26.25,0 q 0.355,0 0.615,0.26t 0.26,0.615t-0.26,0.615t-0.615,0.26l-26.25,0 q-0.355,0 -0.615-0.26t-0.26-0.615t 0.26-0.615t 0.615-0.26zM 616.875,131.25l 22.75,0 q 0.355,0 0.615,0.26t 0.26,0.615t-0.26,0.615t-0.615,0.26l-22.75,0 q-0.355,0 -0.615-0.26t-0.26-0.615
t 0.26-0.615t 0.615-0.26zM 616.875,134.75l 24.5,0 q 0.355,0 0.615,0.26t 0.26,0.615t-0.26,0.615t-0.615,0.26l-24.5,0 q-0.355,0 -0.615-0.26t-0.26-0.615t 0.26-0.615t 0.615-0.26zM 616.875,138.25l 21,0 q 0.355,0 0.615,0.26t 0.26,0.615t-0.26,0.615t-0.615,0.26l-21,0 q-0.355,0 -0.615-0.26t-0.26-0.615t 0.26-0.615t 0.615-0.26z"></path><path d="M 698.25,126l-10.5,0 q-0.711,0 -1.23-0.52t-0.52-1.23l0-8.75 q0-0.711 0.52-1.23t 1.23-0.52l 10.5,0 q 0.711,0 1.23,0.52t 0.52,1.23l0,8.75 q0,0.711 -0.52,1.23t-1.23,0.52zM 683.375,122.5l-10.5,0 q-0.355,0 -0.615-0.26t-0.26-0.615t 0.26-0.615t 0.615-0.26l 10.5,0 q 0.355,0 0.615,0.26t 0.26,0.615t-0.26,0.615t-0.615,0.26zM 672.875,117.25l 7,0 q 0.355,0 0.615,0.26t 0.26,0.615
t-0.26,0.615t-0.615,0.26l-7,0 q-0.355,0 -0.615-0.26t-0.26-0.615t 0.26-0.615t 0.615-0.26zM 683.375,115.5l-10.5,0 q-0.355,0 -0.615-0.26t-0.26-0.615t 0.26-0.615t 0.615-0.26l 10.5,0 q 0.355,0 0.615,0.26t 0.26,0.615t-0.26,0.615t-0.615,0.26zM 672.875,124.25l 8.75,0 q 0.355,0 0.615,0.26t 0.26,0.615t-0.26,0.615t-0.615,0.26l-8.75,0 
q-0.355,0 -0.615-0.26t-0.26-0.615t 0.26-0.615t 0.615-0.26zM 672.875,127.75l 26.25,0 q 0.355,0 0.615,0.26t 0.26,0.615t-0.26,0.615t-0.615,0.26l-26.25,0 q-0.355,0 -0.615-0.26t-0.26-0.615t 0.26-0.615t 0.615-0.26zM 672.875,131.25l 22.75,0 q 0.355,0 0.615,0.26t 0.26,0.615t-0.26,0.615t-0.615,0.26l-22.75,0 q-0.355,0 -0.615-0.26t-0.26-0.615t 0.26-0.615
t 0.615-0.26zM 672.875,134.75l 24.5,0 q 0.355,0 0.615,0.26t 0.26,0.615t-0.26,0.615t-0.615,0.26l-24.5,0 q-0.355,0 -0.615-0.26t-0.26-0.615t 0.26-0.615t 0.615-0.26zM 672.875,138.25l 21,0 q 0.355,0 0.615,0.26t 0.26,0.615t-0.26,0.615t-0.615,0.26l-21,0 q-0.355,0 -0.615-0.26t-0.26-0.615t 0.26-0.615t 0.615-0.26z"></path><path d="M 755.125,119l-26.25,0 q-0.355,0 -0.615-0.26t-0.26-0.615t 0.26-0.615t 0.615-0.26l 26.25,0 q 0.355,0 0.615,0.26t 0.26,0.615t-0.26,0.615t-0.615,0.26zM 749.875,115.5l-21,0 q-0.355,0 -0.615-0.26t-0.26-0.615t 0.26-0.615t 0.615-0.26l 21,0 q 0.355,0 0.615,0.26t 0.26,0.615t-0.26,0.615t-0.615,0.26zM 736.75,133q-0.711,0 -1.23-0.506t-0.52-1.244
l0-8.75 q0-0.711 0.52-1.23t 1.23-0.52l 10.5,0 q 0.738,0 1.244,0.52t 0.506,1.23l0,8.75 q0,0.738 -0.506,1.244t-1.244,0.506l-10.5,0 zM 728.875,134.75l 24.5,0 q 0.355,0 0.615,0.26t 0.26,0.615t-0.26,0.615t-0.615,0.26l-24.5,0 q-0.355,0 -0.615-0.26t-0.26-0.615t 0.26-0.615t 0.615-0.26zM 728.875,138.25l 21,0 q 0.355,0 0.615,0.26t 0.26,0.615t-0.26,0.615t-0.615,0.26
l-21,0 q-0.355,0 -0.615-0.26t-0.26-0.615t 0.26-0.615t 0.615-0.26z"></path><path d="M 811.125,134.75q 0.355,0 0.615,0.26t 0.26,0.615l0,3.5 q0,0.355 -0.26,0.615t-0.615,0.26l-3.5,0 q-0.355,0 -0.615-0.26t-0.26-0.615l0-0.875 l-17.5,0 l0,0.875 q0,0.355 -0.26,0.615t-0.615,0.26l-3.5,0 q-0.355,0 -0.615-0.26t-0.26-0.615l0-3.5 q0-0.355 0.26-0.615t 0.615-0.26l 0.875,0 l0-17.5 l-0.875,0 q-0.355,0 -0.615-0.26t-0.26-0.615l0-3.5 q0-0.355 0.26-0.615
t 0.615-0.26l 3.5,0 q 0.355,0 0.615,0.26t 0.26,0.615l0,0.875 l 17.5,0 l0-0.875 q0-0.355 0.26-0.615t 0.615-0.26l 3.5,0 q 0.355,0 0.615,0.26t 0.26,0.615l0,3.5 q0,0.355 -0.26,0.615t-0.615,0.26l-0.875,0 l0,17.5 l 0.875,0 zM 785.75,137.813q0,0.191 0.123,0.314t 0.314,0.123l 0.875,0 q 0.191,0 0.314-0.123t 0.123-0.314l0-0.875 q0-0.191 -0.123-0.314t-0.314-0.123l-0.875,0 q-0.191,0 -0.314,0.123
t-0.123,0.314l0,0.875 zM 787.5,114.188q0-0.191 -0.123-0.314t-0.314-0.123l-0.875,0 q-0.191,0 -0.314,0.123t-0.123,0.314l0,0.875 q0,0.191 0.123,0.314t 0.314,0.123l 0.875,0 q 0.191,0 0.314-0.123t 0.123-0.314l0-0.875 zM 806.75,116.375l0-0.875 l-17.5,0 l0,0.875 q0,0.355 -0.26,0.615t-0.615,0.26l-0.875,0 l0,17.5 l 0.875,0 q 0.355,0 0.615,0.26t 0.26,0.615l0,0.875 l 17.5,0 l0-0.875 q0-0.355 0.26-0.615
t 0.615-0.26l 0.875,0 l0-17.5 l-0.875,0 q-0.355,0 -0.615-0.26t-0.26-0.615zM 810.25,114.188q0-0.191 -0.123-0.314t-0.314-0.123l-0.875,0 q-0.191,0 -0.314,0.123t-0.123,0.314l0,0.875 q0,0.191 0.123,0.314t 0.314,0.123l 0.875,0 q 0.191,0 0.314-0.123t 0.123-0.314l0-0.875 zM 809.813,136.5l-0.875,0 q-0.191,0 -0.314,0.123t-0.123,0.314l0,0.875 q0,0.191 0.123,0.314t 0.314,0.123l 0.875,0 q 0.191,0 0.314-0.123
t 0.123-0.314l0-0.875 q0-0.191 -0.123-0.314t-0.314-0.123zM 799.75,117.25q 2.898,0 4.949,2.051t 2.051,4.949l-7,0 l0-7 zM 798,133q-2.898,0 -4.949-2.051t-2.051-4.949t 2.051-4.949t 4.949-2.051l0,7 l 7,0 q0,2.898 -2.051,4.949t-4.949,2.051z"></path><path d="M 867.125,134.75q 0.355,0 0.615,0.26t 0.26,0.615l0,3.5 q0,0.355 -0.26,0.615t-0.615,0.26l-3.5,0 q-0.355,0 -0.615-0.26t-0.26-0.615l0-0.875 l-17.5,0 l0,0.875 q0,0.355 -0.26,0.615t-0.615,0.26l-3.5,0 q-0.355,0 -0.615-0.26t-0.26-0.615l0-3.5 q0-0.355 0.26-0.615t 0.615-0.26l 0.875,0 l0-17.5 l-0.875,0 q-0.355,0 -0.615-0.26t-0.26-0.615l0-3.5 q0-0.355 0.26-0.615
t 0.615-0.26l 3.5,0 q 0.355,0 0.615,0.26t 0.26,0.615l0,0.875 l 17.5,0 l0-0.875 q0-0.355 0.26-0.615t 0.615-0.26l 3.5,0 q 0.355,0 0.615,0.26t 0.26,0.615l0,3.5 q0,0.355 -0.26,0.615t-0.615,0.26l-0.875,0 l0,17.5 l 0.875,0 zM 841.75,137.813q0,0.191 0.123,0.314t 0.314,0.123l 0.875,0 q 0.191,0 0.314-0.123t 0.123-0.314l0-0.875 q0-0.191 -0.123-0.314t-0.314-0.123l-0.875,0 q-0.191,0 -0.314,0.123
t-0.123,0.314l0,0.875 zM 843.5,114.188q0-0.191 -0.123-0.314t-0.314-0.123l-0.875,0 q-0.191,0 -0.314,0.123t-0.123,0.314l0,0.875 q0,0.191 0.123,0.314t 0.314,0.123l 0.875,0 q 0.191,0 0.314-0.123t 0.123-0.314l0-0.875 zM 862.75,116.375l0-0.875 l-17.5,0 l0,0.875 q0,0.355 -0.26,0.615t-0.615,0.26l-0.875,0 l0,17.5 l 0.875,0 q 0.355,0 0.615,0.26t 0.26,0.615l0,0.875 l 17.5,0 l0-0.875 q0-0.355 0.26-0.615
t 0.615-0.26l 0.875,0 l0-17.5 l-0.875,0 q-0.355,0 -0.615-0.26t-0.26-0.615zM 866.25,114.188q0-0.191 -0.123-0.314t-0.314-0.123l-0.875,0 q-0.191,0 -0.314,0.123t-0.123,0.314l0,0.875 q0,0.191 0.123,0.314t 0.314,0.123l 0.875,0 q 0.191,0 0.314-0.123t 0.123-0.314l0-0.875 zM 865.813,136.5l-0.875,0 q-0.191,0 -0.314,0.123t-0.123,0.314l0,0.875 q0,0.191 0.123,0.314t 0.314,0.123l 0.875,0 q 0.191,0 0.314-0.123
t 0.123-0.314l0-0.875 q0-0.191 -0.123-0.314t-0.314-0.123zM 860.125,133l-1.75,0 q-0.355,0 -0.615-0.26t-0.26-0.615l0-8.75 q0-0.355 0.26-0.615t 0.615-0.26l 1.75,0 q 0.355,0 0.615,0.26t 0.26,0.615l0,8.75 q0,0.355 -0.26,0.615t-0.615,0.26zM 854.875,133l-1.75,0 q-0.355,0 -0.615-0.26t-0.26-0.615l0-5.25 q0-0.355 0.26-0.615t 0.615-0.26l 1.75,0 q 0.355,0 0.615,0.26
t 0.26,0.615l0,5.25 q0,0.355 -0.26,0.615t-0.615,0.26zM 849.625,133l-1.75,0 q-0.355,0 -0.615-0.26t-0.26-0.615l0-12.25 q0-0.355 0.26-0.615t 0.615-0.26l 1.75,0 q 0.355,0 0.615,0.26t 0.26,0.615l0,12.25 q0,0.355 -0.26,0.615t-0.615,0.26z"></path><path d="M 27.754,188.617l-3.008,3.008l 2.98,2.98q 0.246,0.246 0.246,0.588t-0.232,0.574t-0.574,0.232t-0.588-0.246l-2.98-2.98l-2.98,2.98q-0.246,0.246 -0.588,0.246t-0.574-0.232t-0.232-0.574t 0.246-0.588l 2.98-2.98l-3.008-3.008q-0.246-0.246 -0.246-0.588t 0.246-0.574t 0.574-0.232t 0.574,0.246l 3.008,3.008l 3.008-3.008q 0.246-0.246 0.588-0.246t 0.574,0.232t 0.232,0.574t-0.246,0.588zM 24.445,169.75l-0.574,3.5
q-0.109,0.711 -0.697,1.23t-1.299,0.52t-1.121-0.52t-0.301-1.23q 0.109-0.355 0.068-0.684t-0.26-0.561t-0.93-0.369t-1.941-0.137q-0.711,0 -1.299,0.506t-0.697,1.244l-2.023,10.5q-0.109,0.766 0.15,1.258t 0.889,0.492q 0.656,0 1.039,0.506t 0.273,1.23t-0.656,1.244t-1.203,0.52l-7.109,0 q-0.766,0 -1.203-0.52t-0.314-1.244t 0.752-1.23t 1.367-0.506q 0.793,0 1.641-0.533t 0.984-1.217l 1.996-10.5
q 0.137-0.738 -0.287-1.244t-1.107-0.506q-1.012,0 -1.695,0.096t-1.039,0.219t-0.561,0.41t-0.26,0.465t-0.109,0.561q-0.109,0.711 -0.697,1.23t-1.299,0.52t-1.121-0.52t-0.301-1.23l 0.602-3.5q 0.109-0.738 0.697-1.244t 1.271-0.506l 16.953,0 q 0.711,0 1.121,0.506t 0.301,1.244zM 19.223,191.639q0,0.369 -0.26,0.615t-0.615,0.246l-17.473,0 q-0.355,0 -0.615-0.246t-0.26-0.615t 0.26-0.615
t 0.615-0.246l 17.473,0 q 0.355,0 0.615,0.246t 0.26,0.615z"></path><path d="M 83.125,192.5l-4.375,0 l0,1.75 l 4.375,0 q 0.355,0 0.615,0.26t 0.26,0.615t-0.26,0.615t-0.615,0.26l-5.25,0 q-0.328,0 -0.561-0.205t-0.287-0.506l0-3.828 q 0.055-0.301 0.287-0.506t 0.561-0.205l 4.375,0 l0-1.75 l-4.375,0 q-0.355,0 -0.615-0.26t-0.26-0.615t 0.26-0.615t 0.615-0.26l 5.25,0 q 0.328,0 0.561,0.205t 0.287,0.506l0,3.828 q-0.055,0.301 -0.287,0.506t-0.561,0.205z
M 73.021,188.521q-0.451,0.451 -1.080,0.451t-1.094-0.438l-6.098-7.602l-6.125,7.602q-0.438,0.438 -1.080,0.438t-1.094-0.451t-0.451-1.080t 0.465-1.094l 6.316-7.848l-6.316-7.875q-0.465-0.438 -0.465-1.080t 0.451-1.094t 1.094-0.451t 1.080,0.465l 6.125,7.574l 6.098-7.574q 0.465-0.465 1.094-0.465t 1.080,0.451t 0.451,1.094t-0.438,1.080l-6.316,7.875l 6.316,7.848
q 0.438,0.465 0.438,1.094t-0.451,1.080z"></path><path d="M 139.125,173.277l-4.375,0 l0,1.75 l 4.375,0 q 0.355,0 0.615,0.26t 0.26,0.615t-0.26,0.615t-0.615,0.26l-5.25,0 q-0.328,0 -0.561-0.205t-0.287-0.506l0-3.828 q 0.055-0.301 0.287-0.506t 0.561-0.205l 4.375,0 l0-1.75 l-4.375,0 q-0.355,0 -0.615-0.26t-0.26-0.615t 0.26-0.615t 0.615-0.26l 5.25,0 q 0.328,0 0.561,0.205t 0.287,0.506l0,3.828 q-0.055,0.301 -0.287,0.506t-0.561,0.205z
M 129.021,195.549q-0.451,0.451 -1.080,0.451t-1.094-0.465l-6.098-7.574l-6.125,7.574q-0.438,0.465 -1.080,0.465t-1.094-0.451t-0.451-1.094t 0.465-1.080l 6.316-7.875l-6.316-7.848q-0.465-0.465 -0.465-1.094t 0.451-1.080t 1.094-0.451t 1.080,0.438l 6.125,7.602l 6.098-7.602q 0.465-0.438 1.094-0.438t 1.080,0.451t 0.451,1.080t-0.438,1.094l-6.316,7.848l 6.316,7.875
q 0.438,0.438 0.438,1.080t-0.451,1.094z"></path><path d="M 194.25,178.5l-12.25,0 q-0.711,0 -1.23-0.506t-0.52-1.23t 0.52-1.244t 1.23-0.52l 12.25,0 q 0.711,0 1.23,0.52t 0.52,1.244t-0.52,1.23t-1.23,0.506zM 189,173.25l-7,0 q-0.738,0 -1.244-0.506t-0.506-1.244t 0.506-1.244t 1.244-0.506l 7,0 q 0.711,0 1.23,0.52t 0.52,1.244t-0.506,1.23t-1.244,0.506zM 177.625,196q-0.355,0 -0.615-0.26t-0.26-0.615l0-26.25 
q0-0.355 0.26-0.615t 0.615-0.26t 0.615,0.26t 0.26,0.615l0,26.25 q0,0.355 -0.26,0.615t-0.615,0.26zM 172.348,185.309q-0.191,0.191 -0.424,0.191t-0.424-0.191l0-1.559 l-2.625,0 q-0.355,0 -0.615-0.26t-0.26-0.615l0-1.75 q0-0.355 0.26-0.615t 0.615-0.26l 2.625,0 l0-1.559 q 0.191-0.219 0.424-0.219t 0.424,0.219l 4.238,2.816q 0.164,0.191 0.164,0.479t-0.164,0.479zM 182,180.25l 8.75,0 q 0.711,0 1.23,0.506
t 0.52,1.244t-0.52,1.244t-1.23,0.506l-8.75,0 q-0.738,0 -1.244-0.52t-0.506-1.244t 0.506-1.23t 1.244-0.506zM 182,185.5l 10.5,0 q 0.711,0 1.23,0.506t 0.52,1.23t-0.52,1.244t-1.23,0.52l-10.5,0 q-0.711,0 -1.23-0.52t-0.52-1.244t 0.506-1.23t 1.244-0.506zM 182,190.75l 3.5,0 q 0.711,0 1.23,0.506t 0.52,1.23t-0.52,1.244t-1.23,0.52l-3.5,0 q-0.711,0 -1.23-0.52t-0.52-1.244
t 0.506-1.23t 1.244-0.506z"></path><path d="M 251.125,183.75l-2.625,0 l0,1.559 q-0.191,0.191 -0.424,0.191t-0.424-0.191l-4.238-2.844q-0.164-0.191 -0.164-0.465t 0.164-0.492l 4.238-2.816q 0.191-0.219 0.424-0.219t 0.424,0.219l0,1.559 l 2.625,0 q 0.355,0 0.615,0.26t 0.26,0.615l0,1.75 q0,0.355 -0.26,0.615t-0.615,0.26zM 242.375,196q-0.355,0 -0.615-0.26t-0.26-0.615l0-26.25 q0-0.355 0.26-0.615t 0.615-0.26t 0.615,0.26t 0.26,0.615l0,26.25 
q0,0.355 -0.26,0.615t-0.615,0.26zM 238,178.5l-12.25,0 q-0.738,0 -1.244-0.506t-0.506-1.23t 0.506-1.244t 1.244-0.52l 12.25,0 q 0.711,0 1.23,0.52t 0.52,1.244t-0.52,1.23t-1.23,0.506zM 232.75,173.25l-7,0 q-0.738,0 -1.244-0.506t-0.506-1.244t 0.506-1.244t 1.244-0.506l 7,0 q 0.711,0 1.23,0.52t 0.52,1.244t-0.52,1.23t-1.23,0.506zM 225.75,180.25l 8.75,0 
q 0.711,0 1.23,0.52t 0.52,1.23t-0.52,1.23t-1.23,0.52l-8.75,0 q-0.738,0 -1.244-0.506t-0.506-1.244t 0.506-1.244t 1.244-0.506zM 225.75,185.5l 10.5,0 q 0.711,0 1.23,0.506t 0.52,1.23t-0.52,1.244t-1.23,0.52l-10.5,0 q-0.738,0 -1.244-0.52t-0.506-1.244t 0.506-1.23t 1.244-0.506zM 225.75,190.75l 3.5,0 q 0.711,0 1.23,0.506t 0.52,1.23t-0.52,1.244t-1.23,0.52l-3.5,0 
q-0.738,0 -1.244-0.52t-0.506-1.244t 0.506-1.23t 1.244-0.506z"></path><path d="M 304.5,187.25l0,1.75 q0,2.898 -2.051,4.949t-4.949,2.051l-12.25,0 q-0.738,0 -1.244-0.52t-0.506-1.23l0-24.5 q0-0.711 0.506-1.23t 1.244-0.52l 12.25,0 q 2.898,0 4.949,2.051t 2.051,4.949l0,0.875 q0,1.531 -0.643,2.898t-1.736,2.352q 1.039,0.93 1.709,2.707t 0.67,3.418zM 296.625,173.25l-7,0 q-0.355,0 -0.615,0.26t-0.26,0.615l0,3.5 q0,0.355 0.26,0.615t 0.615,0.26l 7,0 
q 1.066,0 1.846-0.766t 0.779-1.859t-0.779-1.859t-1.846-0.766zM 295.75,183.75l-6.125,0 q-0.355,0 -0.615,0.26t-0.26,0.615l0,5.25 q0,0.355 0.26,0.615t 0.615,0.26l 6.125,0 q 1.449,0 2.475-1.025t 1.025-2.475t-1.025-2.475t-2.475-1.025z"></path><path d="M 357,171.5l-2.133,0 l-6.098,21l 1.23,0 q 0.711,0 1.23,0.506t 0.52,1.23t-0.52,1.244t-1.23,0.52l-7,0 q-0.738,0 -1.244-0.52t-0.506-1.244t 0.506-1.23t 1.244-0.506l 2.188,0 l 6.098-21l-1.285,0 q-0.738,0 -1.244-0.506t-0.506-1.23t 0.506-1.244t 1.244-0.52l 7,0 q 0.711,0 1.23,0.52t 0.52,1.244t-0.52,1.23t-1.23,0.506z"></path><path d="M 418.25,196l-24.5,0 q-0.711,0 -1.23-0.52t-0.52-1.244t 0.52-1.23t 1.23-0.506l 24.5,0 q 0.738,0 1.244,0.506t 0.506,1.23t-0.506,1.244t-1.244,0.52zM 409.5,190.75l-7,0 q-2.898,0 -4.949-2.051t-2.051-4.949l0-14 q0-0.711 0.52-1.23t 1.244-0.52t 1.23,0.52t 0.506,1.23l0,0.027 l0,13.973 q0,1.449 1.025,2.475t 2.475,1.025l 7,0 q 1.449,0 2.475-1.025t 1.025-2.475l0-14 l0,0 
q0-0.711 0.52-1.23t 1.244-0.52t 1.23,0.506t 0.506,1.244l0,14 q0,2.898 -2.051,4.949t-4.949,2.051z"></path><path d="M 474.25,183.75l-2.707,0 q 0.93,1.641 0.93,3.5l0,1.75 q0,2.898 -2.037,4.949t-4.936,2.051l-7,0 q-2.898,0 -4.949-2.051t-2.051-4.949q0-0.738 0.506-1.244t 1.23-0.506t 1.244,0.506t 0.52,1.244q0,1.449 1.025,2.475t 2.475,1.025l 7,0 q 1.449,0 2.475-1.025t 1.025-2.475l0-1.75 q0-1.449 -1.025-2.475t-2.475-1.025l-15.75,0 q-0.738,0 -1.244-0.506t-0.506-1.244
t 0.506-1.244t 1.244-0.506l 2.707,0 q-0.93-1.641 -0.93-3.5l0-1.75 q0-2.898 2.037-4.949t 4.936-2.051l 7,0 q 2.898,0 4.949,2.051t 2.051,4.949q0,0.738 -0.506,1.244t-1.23,0.506t-1.244-0.52t-0.52-1.23q0-1.449 -1.025-2.475t-2.475-1.025l-7,0 q-1.449,0 -2.475,1.025t-1.025,2.475l0,1.75 q0,1.449 1.025,2.475t 2.475,1.025l 15.75,0 q 0.711,0 1.23,0.52t 0.52,1.23
t-0.52,1.23t-1.23,0.52z"></path><path d="M 530.25,175q-0.711,0 -1.23-0.52t-0.52-1.23q0-0.684 -1.162-1.217t-2.311-0.533l-0.027,0 q-0.711,0 -1.23,0.506t-0.52,1.244l0,17.473 q0,0.738 0.52,1.244t 1.244,0.506t 1.23,0.52t 0.506,1.244t-0.506,1.23t-1.244,0.506l-7,0 q-0.711,0 -1.23-0.506t-0.52-1.23t 0.52-1.244t 1.244-0.52t 1.23-0.506t 0.506-1.244l0-17.473 q0-0.738 -0.506-1.244t-1.244-0.506
q-1.176,0 -2.338,0.533t-1.162,1.217q0,0.711 -0.506,1.23t-1.23,0.52t-1.244-0.52t-0.52-1.23l0-3.5 q0-0.738 0.52-1.244t 1.23-0.506l 17.5,0 q 0.738,0 1.244,0.506t 0.506,1.244l0,3.5 q0,0.711 -0.52,1.23t-1.23,0.52zM 509.031,192.5q 0.219,0.219 0.219,0.52t-0.219,0.52l-1.805,2.242q-0.246,0.219 -0.588,0.219t-0.588-0.219l-1.805-2.242q-0.246-0.219 -0.246-0.52t 0.246-0.52l 1.531,0 l0-21 l-1.531,0 
q-0.246-0.219 -0.246-0.533t 0.246-0.533l 1.805-2.242q 0.246-0.219 0.588-0.219t 0.588,0.219l 1.805,2.242q 0.219,0.219 0.219,0.533t-0.219,0.533l-1.504,0 l0,21 l 1.504,0 z"></path><path d="M 587.781,193.977l-2.242,1.777q-0.219,0.246 -0.52,0.246t-0.52-0.246l0-1.477 l-21,0 l0,1.477 q-0.219,0.246 -0.52,0.246t-0.52-0.246l-2.242-1.777q-0.219-0.246 -0.219-0.588t 0.219-0.588l 2.242-1.805q 0.219-0.219 0.52-0.219t 0.52,0.219l0,1.531 l 21,0 l0-1.531 q 0.219-0.219 0.52-0.219t 0.52,0.219l 2.242,1.805q 0.219,0.246 0.219,0.588t-0.219,0.588zM 584.473,175q-0.711,0 -1.23-0.506t-0.52-1.244t-1.354-1.244t-3.869-0.506q-0.738,0 -1.244,0.52t-0.506,1.23
l0,12.25 q0,0.738 0.506,1.244t 1.23,0.506t 1.244,0.52t 0.52,1.244t-0.52,1.23t-1.23,0.506l-7,0 q-0.738,0 -1.244-0.506t-0.506-1.23t 0.506-1.244t 1.23-0.52t 1.244-0.506t 0.52-1.244l0-8.75 l0,0.055 l0,0.027 l0,0.027 l0,0.055 l0,0.027 l0,0.027 l0,0.027 l0,0.027 l0,0.027 l0,0.027 l0,0 l0,0.027 l0,0 l0,0 l0,0 l0,0 l0,0 l0,0 l0-0.027 l0,0 l0-0.027 l0-0.027 l0-0.027 l0-0.027 l0-0.027 l0-0.027 l0-0.027 l0-0.027 l0-0.027 l0-0.027 l0-0.027 l0-0.027 l0-0.027 l0-0.027 l0-0.027 l0-0.027 l0-0.027 l0-0.027 l0-0.027 l0-0.027 l0-0.027 l0-0.027 l0-0.055 l0-0.027 l0-0.027 l0-0.027 l0-0.027 l0-0.027 l0-0.027 l0-0.027 l0-0.027 l0-0.055 l0-0.027 
l0-0.027 l0-0.027 l0-0.027 l0-0.055 l0-0.027 l0-0.027 l0-0.027 l0-0.055 l0-0.027 l0-0.027 l0-0.055 l0-0.027 l0-0.027 l0-0.055 l0-0.027 l0-0.027 l0-0.055 l0-0.027 l0-0.055 l0-0.027 l0-0.055 l0-0.027 l0-0.055 l0-0.027 l0-0.027 l0-0.055 l0-0.027 l0-0.055 l0-0.055 l0-0.027 l0-0.055 l0-0.027 l0-0.055 l0-0.027 l0-0.055 l0-0.027 l0-0.055 l0-0.055 l0-0.027 l0-0.055 l0-0.055 l0-0.027 l0-0.055 l0-0.055 l0-0.027 l0-0.055 l0-0.055 l0-0.027 l0-0.055 l0-0.055 l0-0.055 l0-0.027 l0-0.055 l0-0.055 l0-0.055 l0-0.027 l0-0.055 l0-0.055 l0-0.055 l0-0.027 l0-0.055 l0-0.055 l0-0.273 q0-0.711 -0.52-1.23t-1.23-0.52q-2.516,0 -3.883,0.506t-1.367,1.244t-0.52,1.244t-1.244,0.506t-1.23-0.506t-0.506-1.244l0-3.5 q0-0.711 0.506-1.23t 1.244-0.52l 21,0 
q 0.711,0 1.23,0.52t 0.52,1.23l0,3.5 q0,0.738 -0.52,1.244t-1.23,0.506l-0.027,0 z"></path><path d="M 638.148,186.566l-7.438,9.434l-7.438-9.434q-1.996-2.078 -2.721-4.881t0-5.605t 2.721-4.908q 1.531-1.559 3.486-2.365t 3.951-0.807t 3.951,0.807t 3.486,2.365q 1.996,2.105 2.721,4.908t0,5.605t-2.721,4.881zM 630.725,171.527q-2.912,0 -4.963,2.051t-2.051,4.949t 2.051,4.936t 4.963,2.037t 4.963-2.037t 2.051-4.936t-2.051-4.949
t-4.963-2.051zM 630.738,182q-1.449,0 -2.475-1.025t-1.025-2.475t 1.025-2.475t 2.475-1.025t 2.475,1.025t 1.025,2.475t-1.025,2.475t-2.475,1.025z"></path><path d="M 686,196q-2.844,0 -5.441-1.107t-4.471-2.98t-2.98-4.471t-1.107-5.441t 1.107-5.441t 2.98-4.471t 4.471-2.994t 5.441-1.121t 5.441,1.121t 4.471,2.994t 2.98,4.471t 1.107,5.441t-1.107,5.441t-2.98,4.471t-4.471,2.98t-5.441,1.107zM 675.5,182q0,2.844 1.408,5.264t 3.828,3.828t 5.264,1.408q 3.336,0 6.070-1.941
l-14.629-14.629q-1.941,2.734 -1.941,6.070zM 686,171.5q-3.309,0 -6.043,1.914l 14.629,14.629q 1.914-2.734 1.914-6.043q0-2.871 -1.408-5.291t-3.828-3.814t-5.264-1.395z"></path><path d="M 755.48,195.48q-0.52,0.52 -1.244,0.52t-1.244-0.52l-5.414-5.414q-3.281,2.434 -7.328,2.434q-2.488,0 -4.758-0.971t-3.91-2.611t-2.611-3.91t-0.971-4.758t 0.971-4.758t 2.611-3.91t 3.91-2.611t 4.758-0.971t 4.758,0.971t 3.91,2.611t 2.611,3.91t 0.971,4.758q0,4.047 -2.434,7.328l 5.414,5.414q 0.52,0.52 0.52,1.244t-0.52,1.244zM 740.25,171.5
q-2.379,0 -4.389,1.176t-3.186,3.186t-1.176,4.389t 1.176,4.402t 3.186,3.186t 4.389,1.162t 4.389-1.162t 3.186-3.186t 1.176-4.402t-1.176-4.389t-3.186-3.186t-4.389-1.176zM 743.75,182l-1.75,0 l0,1.75 q0,0.738 -0.52,1.244t-1.244,0.506t-1.23-0.506t-0.506-1.244l0-1.75 l-1.75,0 q-0.738,0 -1.244-0.506t-0.506-1.23t 0.506-1.244t 1.244-0.52
l 1.75,0 l0-1.75 q0-0.711 0.506-1.23t 1.23-0.52t 1.244,0.52t 0.52,1.23l0,1.75 l 1.75,0 q 0.711,0 1.23,0.52t 0.52,1.244t-0.52,1.23t-1.23,0.506z"></path><path d="M 811.48,195.48q-0.52,0.52 -1.244,0.52t-1.244-0.52l-5.414-5.414q-3.281,2.434 -7.328,2.434q-2.488,0 -4.758-0.971t-3.91-2.611t-2.611-3.91t-0.971-4.758t 0.971-4.758t 2.611-3.91t 3.91-2.611t 4.758-0.971t 4.758,0.971t 3.91,2.611t 2.611,3.91t 0.971,4.758q0,4.047 -2.434,7.328l 5.414,5.414q 0.52,0.52 0.52,1.244t-0.52,1.244zM 796.25,171.5
q-2.379,0 -4.389,1.176t-3.186,3.186t-1.176,4.389t 1.176,4.402t 3.186,3.186t 4.389,1.162t 4.389-1.162t 3.186-3.186t 1.176-4.402t-1.176-4.389t-3.186-3.186t-4.389-1.176zM 799.75,182l-7,0 q-0.738,0 -1.244-0.506t-0.506-1.23t 0.506-1.244t 1.244-0.52l 7,0 q 0.711,0 1.23,0.52t 0.52,1.244t-0.52,1.23t-1.23,0.506z"></path><path d="M 867.699,182.602l-5.414,4.484q-0.301,0.219 -0.793,0.137t-0.492-0.355l0-3.117 l-5.277,0 l0,5.25 l 3.117,0 q 0.273,0 0.369,0.492t-0.15,0.793l-4.484,5.414q-0.246,0.301 -0.588,0.301t-0.588-0.301l-4.484-5.414q-0.246-0.301 -0.15-0.793t 0.342-0.492l 3.117,0 l0-5.25 l-5.223,0 l0,3.117 q0,0.246 -0.492,0.342t-0.793-0.123l-5.414-4.512q-0.301-0.246 -0.301-0.588t 0.301-0.588l 5.414-4.484q 0.301-0.246 0.793-0.15t 0.492,0.342
l0,3.145 l 5.223,0 l0-5.277 l-3.090,0 q-0.273,0 -0.369-0.492t 0.15-0.793l 4.484-5.387q 0.246-0.328 0.588-0.328t 0.588,0.328l 4.484,5.387q 0.246,0.301 0.15,0.793t-0.342,0.492l-3.145,0 l0,5.277 l 5.277,0 l0-3.117 q0-0.273 0.492-0.369t 0.793,0.15l 5.414,4.484q 0.301,0.246 0.301,0.602t-0.301,0.602z"></path><path d="M 14.027,252q-3.227,0 -6.070-1.381t-4.813-3.814l 2.762-2.16q 1.477,1.805 3.596,2.83t 4.525,1.025q 2.844,0 5.264-1.408t 3.828-3.828t 1.408-5.264t-1.408-5.264t-3.828-3.828t-5.264-1.408q-3.938,0 -6.918,2.625l 3.445,3.445q 0.027,0.957 -0.629,0.93l-9.023,0 q-0.355,0 -0.588-0.383t-0.26-0.793l-0.027-8.695q-0.027-0.656 0.93-0.629l 3.664,3.664
q 1.914-1.723 4.334-2.693t 5.072-0.971q 2.844,0 5.441,1.121t 4.471,2.994t 2.98,4.457t 1.107,5.428t-1.107,5.441t-2.98,4.471t-4.471,2.98t-5.441,1.107z"></path><path d="M 83.973,233.324q-0.027,0.41 -0.26,0.793t-0.588,0.383l-9.023,0 q-0.656,0.027 -0.629-0.93l 3.445-3.445q-2.98-2.625 -6.918-2.625q-2.844,0 -5.264,1.408t-3.828,3.828t-1.408,5.277t 1.408,5.264t 3.828,3.814t 5.264,1.408q 2.406,0 4.525-1.025t 3.596-2.83l 2.762,2.16q-1.969,2.434 -4.813,3.814t-6.070,1.381q-2.844,0 -5.441-1.107t-4.471-2.98
t-2.98-4.471t-1.107-5.441t 1.107-5.428t 2.98-4.457t 4.471-2.98t 5.441-1.107q 2.652,0 5.072,0.957t 4.334,2.68l 3.664-3.664q 0.957-0.027 0.93,0.629z"></path><path d="M 137.908,249.908q-2.092,2.092 -5.059,2.092t-5.045-2.105l-1.395-1.395l 3.090-1.75l 0.656,0.656q 1.094,1.094 2.625,1.094t 2.625-1.094t 1.094-2.625t-1.094-2.625l-6.563-6.59q-1.094-1.066 -2.639-1.066t-2.639,1.066q-0.027,0.055 -0.082,0.109q-0.848,0.848 -0.984,1.449l-2.625-2.625q 0.109-0.191 0.273-0.41t 0.26-0.314l 0.355-0.355t 0.342-0.314q 2.078-2.105 5.045-2.105t 5.045,2.105l 6.699,6.699
q 2.105,2.078 2.105,5.045t-2.092,5.059zM 121.844,228.594q-1.094-1.094 -2.625-1.094t-2.625,1.094t-1.094,2.625t 1.094,2.625l 6.563,6.59q 1.094,1.094 2.639,1.094t 2.639-1.094q 0.027-0.055 0.082-0.109q 0.848-0.848 0.984-1.449l 2.625,2.625q-0.109,0.191 -0.273,0.41t-0.26,0.314l-0.355,0.355t-0.342,0.314q-2.078,2.105 -5.045,2.105t-5.045-2.105l-6.699-6.699q-2.105-2.078 -2.105-5.045t 2.092-5.059t 5.059-2.092
t 5.045,2.105l 1.395,1.395l-3.090,1.75z"></path><path d="M 182,252q-3.801,0 -7.027-1.873t-5.1-5.1t-1.873-7.027t 1.873-7.027t 5.1-5.1t 7.027-1.873t 7.027,1.873t 5.1,5.1t 1.873,7.027t-1.873,7.027t-5.1,5.1t-7.027,1.873zM 182,227.5q-2.844,0 -5.264,1.408t-3.828,3.828t-1.408,5.264t 1.408,5.264t 3.828,3.828t 5.264,1.408t 5.264-1.408t 3.828-3.828
t 1.408-5.264t-1.408-5.264t-3.828-3.828t-5.264-1.408zM 188.070,235.813q-0.164,0.574 -0.629,0.943t-1.066,0.369q-0.219,0 -0.438-0.082t-0.355-0.164t-0.314-0.273t-0.246-0.273t-0.191-0.287t-0.15-0.232q-1.066-1.313 -2.68-1.313q-1.449,0 -2.475,1.025t-1.025,2.475t 1.025,2.475t 2.475,1.025q 1.613,0 2.68-1.313q 0.055-0.055 0.26-0.369t 0.342-0.465t 0.438-0.314t 0.656-0.164q 0.602,0 1.066,0.369
t 0.629,0.943q 0.027,0.109 0.055,0.301t-0.096,0.643t-0.506,0.807q-1.012,1.367 -2.461,2.215t-3.063,0.848q-2.898,0 -4.949-2.051t-2.051-4.949t 2.051-4.949t 4.949-2.051q 1.668,0 3.131,0.861t 2.475,2.283q 0.328,0.301 0.438,0.725t 0.055,0.697z"></path><path d="M 248,227.5l0,17.5 q0,0.781 -0.531,1.391t-1.344,0.945t-1.617,0.5t-1.508,0.164t-1.508-0.164t-1.617-0.5t-1.344-0.945t-0.531-1.391t 0.531-1.391t 1.344-0.945t 1.617-0.5t 1.508-0.164q 1.641,0 3,0.609l0-8.391 l-12,3.703l0,11.078 q0,0.781 -0.531,1.391t-1.344,0.945t-1.617,0.5t-1.508,0.164t-1.508-0.164t-1.617-0.5t-1.344-0.945t-0.531-1.391 t 0.531-1.391t 1.344-0.945t 1.617-0.5t 1.508-0.164q 1.641,0 3,0.609l0-15.109 q0-0.484 0.297-0.883t 0.766-0.555l 13-4q 0.188-0.063 0.438-0.063q 0.625,0 1.063,0.438t 0.438,1.063z"></path><path d="M 306.109,232.844q0,0.625 -0.438,1.063l-11.313,11.313l-2.125,2.125q-0.438,0.438 -1.063,0.438t-1.063-0.438l-2.125-2.125l-5.656-5.656q-0.438-0.438 -0.438-1.063t 0.438-1.063l 2.125-2.125q 0.438-0.438 1.063-0.438t 1.063,0.438l 4.594,4.609l 10.25-10.266q 0.438-0.438 1.063-0.438t 1.063,0.438l 2.125,2.125q 0.438,0.438 0.438,1.063z"></path><path d="M 356.281,244.656q0,0.625 -0.438,1.063l-2.125,2.125q-0.438,0.438 -1.063,0.438t-1.063-0.438l-4.594-4.594l-4.594,4.594q-0.438,0.438 -1.063,0.438t-1.063-0.438l-2.125-2.125q-0.438-0.438 -0.438-1.063t 0.438-1.063l 4.594-4.594l-4.594-4.594q-0.438-0.438 -0.438-1.063t 0.438-1.063l 2.125-2.125q 0.438-0.438 1.063-0.438t 1.063,0.438l 4.594,4.594l 4.594-4.594q 0.438-0.438 1.063-0.438t 1.063,0.438l 2.125,2.125q 0.438,0.438 0.438,1.063 t-0.438,1.063l-4.594,4.594l 4.594,4.594q 0.438,0.438 0.438,1.063z"></path><path d="M 408,238q0-1.656 -1.172-2.828t-2.828-1.172t-2.828,1.172t-1.172,2.828t 1.172,2.828t 2.828,1.172t 2.828-1.172t 1.172-2.828zM 416,236.297l0,3.469 q0,0.188 -0.125,0.359t-0.313,0.203l-2.891,0.438q-0.297,0.844 -0.609,1.422q 0.547,0.781 1.672,2.156q 0.156,0.188 0.156,0.391t-0.141,0.359q-0.422,0.578 -1.547,1.688t-1.469,1.109q-0.188,0 -0.406-0.141l-2.156-1.688q-0.688,0.359 -1.422,0.594 q-0.25,2.125 -0.453,2.906q-0.109,0.438 -0.563,0.438l-3.469,0 q-0.219,0 -0.383-0.133t-0.18-0.336l-0.438-2.875q-0.766-0.25 -1.406-0.578l-2.203,1.672q-0.156,0.141 -0.391,0.141q-0.219,0 -0.391-0.172q-1.969-1.781 -2.578-2.625q-0.109-0.156 -0.109-0.359q0-0.188 0.125-0.359q 0.234-0.328 0.797-1.039t 0.844-1.102q-0.422-0.781 -0.641-1.547l-2.859-0.422q-0.203-0.031 -0.328-0.195t-0.125-0.367l0-3.469 q0-0.188 0.125-0.359t 0.297-0.203 l 2.906-0.438q 0.219-0.719 0.609-1.438q-0.625-0.891 -1.672-2.156q-0.156-0.188 -0.156-0.375q0-0.156 0.141-0.359q 0.406-0.563 1.539-1.68t 1.477-1.117q 0.203,0 0.406,0.156l 2.156,1.672q 0.688-0.359 1.422-0.594q 0.25-2.125 0.453-2.906q 0.109-0.438 0.563-0.438l 3.469,0 q 0.219,0 0.383,0.133t 0.18,0.336l 0.438,2.875q 0.766,0.25 1.406,0.578l 2.219-1.672q 0.141-0.141 0.375-0.141q 0.203,0 0.391,0.156q 2.016,1.859 2.578,2.656q 0.109,0.125 0.109,0.344 q0,0.188 -0.125,0.359q-0.234,0.328 -0.797,1.039t-0.844,1.102q 0.406,0.781 0.641,1.531l 2.859,0.438q 0.203,0.031 0.328,0.195t 0.125,0.367z"></path><path d="M 450,248l 16,0 l0-12 l-6.5,0 q-0.625,0 -1.063-0.438t-0.438-1.063l0-6.5 l-8,0 l0,20 zM 460,234l 5.875,0 q-0.156-0.453 -0.344-0.641l-4.891-4.891q-0.188-0.188 -0.641-0.344l0,5.875 zM 468,234.5l0,14 q0,0.625 -0.438,1.063t-1.063,0.438l-17,0 q-0.625,0 -1.063-0.438t-0.438-1.063l0-21 q0-0.625 0.438-1.063t 1.063-0.438l 10,0 q 0.625,0 1.375,0.313t 1.188,0.75l 4.875,4.875q 0.438,0.438 0.75,1.188t 0.313,1.375z "></path><path d="M 522.5,238q0,0.578 -0.5,0.859l-8.5,5q-0.234,0.141 -0.5,0.141q-0.25,0 -0.5-0.125q-0.5-0.297 -0.5-0.875l0-10 q0-0.578 0.5-0.875q 0.516-0.281 1,0.016l 8.5,5q 0.5,0.281 0.5,0.859zM 524.5,238q0-2.313 -1.141-4.266t-3.094-3.094t-4.266-1.141t-4.266,1.141t-3.094,3.094t-1.141,4.266t 1.141,4.266t 3.094,3.094t 4.266,1.141t 4.266-1.141t 3.094-3.094t 1.141-4.266zM 528,238 q0,3.266 -1.609,6.023t-4.367,4.367t-6.023,1.609t-6.023-1.609t-4.367-4.367t-1.609-6.023t 1.609-6.023t 4.367-4.367t 6.023-1.609t 6.023,1.609t 4.367,4.367t 1.609,6.023z"></path><path d="M 584,228l0,7 q0,0.406 -0.297,0.703t-0.703,0.297l-7,0 q-0.656,0 -0.922-0.625q-0.266-0.609 0.219-1.078l 2.156-2.156q-2.313-2.141 -5.453-2.141q-1.625,0 -3.102,0.633t-2.555,1.711t-1.711,2.555t-0.633,3.102t 0.633,3.102t 1.711,2.555t 2.555,1.711t 3.102,0.633q 1.859,0 3.516-0.813t 2.797-2.297q 0.109-0.156 0.359-0.188q 0.219,0 0.391,0.141 l 2.141,2.156q 0.141,0.125 0.148,0.32t-0.117,0.352q-1.703,2.063 -4.125,3.195t-5.109,1.133q-2.438,0 -4.656-0.953t-3.828-2.563t-2.563-3.828t-0.953-4.656t 0.953-4.656t 2.563-3.828t 3.828-2.563t 4.656-0.953q 2.297,0 4.445,0.867t 3.82,2.445l 2.031-2.016q 0.453-0.484 1.094-0.219q 0.609,0.266 0.609,0.922z"></path><path d="M 631,234.5q 1.859,0 3.18,1.32t 1.32,3.18t-1.32,3.18t-3.18,1.32t-3.18-1.32t-1.32-3.18t 1.32-3.18t 3.18-1.32zM 642,228q 1.656,0 2.828,1.172t 1.172,2.828l0,14 q0,1.656 -1.172,2.828t-2.828,1.172l-22,0 q-1.656,0 -2.828-1.172t-1.172-2.828l0-14 q0-1.656 1.172-2.828t 2.828-1.172l 3.5,0 l 0.797-2.125 q 0.297-0.766 1.086-1.32t 1.617-0.555l 8,0 q 0.828,0 1.617,0.555t 1.086,1.32l 0.797,2.125l 3.5,0 zM 631,246q 2.891,0 4.945-2.055t 2.055-4.945t-2.055-4.945t-4.945-2.055t-4.945,2.055t-2.055,4.945t 2.055,4.945t 4.945,2.055z"></path><path d="M 676,244.5l0,3 q0,0.203 -0.148,0.352t-0.352,0.148l-3,0 q-0.203,0 -0.352-0.148t-0.148-0.352l0-3 q0-0.203 0.148-0.352t 0.352-0.148l 3,0 q 0.203,0 0.352,0.148t 0.148,0.352zM 676,238.5l0,3 q0,0.203 -0.148,0.352t-0.352,0.148l-3,0 q-0.203,0 -0.352-0.148t-0.148-0.352l0-3 q0-0.203 0.148-0.352t 0.352-0.148l 3,0 q 0.203,0 0.352,0.148 t 0.148,0.352zM 676,232.5l0,3 q0,0.203 -0.148,0.352t-0.352,0.148l-3,0 q-0.203,0 -0.352-0.148t-0.148-0.352l0-3 q0-0.203 0.148-0.352t 0.352-0.148l 3,0 q 0.203,0 0.352,0.148t 0.148,0.352zM 700,244.5l0,3 q0,0.203 -0.148,0.352t-0.352,0.148l-21,0 q-0.203,0 -0.352-0.148t-0.148-0.352l0-3 q0-0.203 0.148-0.352t 0.352-0.148l 21,0  q 0.203,0 0.352,0.148t 0.148,0.352zM 676,226.5l0,3 q0,0.203 -0.148,0.352t-0.352,0.148l-3,0 q-0.203,0 -0.352-0.148t-0.148-0.352l0-3 q0-0.203 0.148-0.352t 0.352-0.148l 3,0 q 0.203,0 0.352,0.148t 0.148,0.352zM 700,238.5l0,3 q0,0.203 -0.148,0.352t-0.352,0.148l-21,0 q-0.203,0 -0.352-0.148t-0.148-0.352l0-3 q0-0.203 0.148-0.352 t 0.352-0.148l 21,0 q 0.203,0 0.352,0.148t 0.148,0.352zM 700,232.5l0,3 q0,0.203 -0.148,0.352t-0.352,0.148l-21,0 q-0.203,0 -0.352-0.148t-0.148-0.352l0-3 q0-0.203 0.148-0.352t 0.352-0.148l 21,0 q 0.203,0 0.352,0.148t 0.148,0.352zM 700,226.5l0,3 q0,0.203 -0.148,0.352t-0.352,0.148l-21,0 q-0.203,0 -0.352-0.148t-0.148-0.352l0-3  q0-0.203 0.148-0.352t 0.352-0.148l 21,0 q 0.203,0 0.352,0.148t 0.148,0.352z"></path><path d="M 734,232.5l0,9 q0,0.203 -0.148,0.352t-0.352,0.148q-0.219,0 -0.359-0.141l-4.5-4.5q-0.141-0.141 -0.141-0.359t 0.141-0.359l 4.5-4.5q 0.141-0.141 0.359-0.141q 0.203,0 0.352,0.148t 0.148,0.352zM 756,244.5l0,3 q0,0.203 -0.148,0.352t-0.352,0.148l-27,0 q-0.203,0 -0.352-0.148t-0.148-0.352l0-3 q0-0.203 0.148-0.352t 0.352-0.148l 27,0 q 0.203,0 0.352,0.148 t 0.148,0.352zM 756,238.5l0,3 q0,0.203 -0.148,0.352t-0.352,0.148l-17,0 q-0.203,0 -0.352-0.148t-0.148-0.352l0-3 q0-0.203 0.148-0.352t 0.352-0.148l 17,0 q 0.203,0 0.352,0.148t 0.148,0.352zM 756,232.5l0,3 q0,0.203 -0.148,0.352t-0.352,0.148l-17,0 q-0.203,0 -0.352-0.148t-0.148-0.352l0-3 q0-0.203 0.148-0.352t 0.352-0.148l 17,0  q 0.203,0 0.352,0.148t 0.148,0.352zM 756,226.5l0,3 q0,0.203 -0.148,0.352t-0.352,0.148l-27,0 q-0.203,0 -0.352-0.148t-0.148-0.352l0-3 q0-0.203 0.148-0.352t 0.352-0.148l 27,0 q 0.203,0 0.352,0.148t 0.148,0.352z"></path><path d="M 789.5,237q0,0.219 -0.141,0.359l-4.5,4.5q-0.141,0.141 -0.359,0.141q-0.203,0 -0.352-0.148t-0.148-0.352l0-9 q0-0.203 0.148-0.352t 0.352-0.148q 0.219,0 0.359,0.141l 4.5,4.5q 0.141,0.141 0.141,0.359zM 812,244.5l0,3 q0,0.203 -0.148,0.352t-0.352,0.148l-27,0 q-0.203,0 -0.352-0.148t-0.148-0.352l0-3 q0-0.203 0.148-0.352t 0.352-0.148l 27,0 q 0.203,0 0.352,0.148 t 0.148,0.352zM 812,238.5l0,3 q0,0.203 -0.148,0.352t-0.352,0.148l-17,0 q-0.203,0 -0.352-0.148t-0.148-0.352l0-3 q0-0.203 0.148-0.352t 0.352-0.148l 17,0 q 0.203,0 0.352,0.148t 0.148,0.352zM 812,232.5l0,3 q0,0.203 -0.148,0.352t-0.352,0.148l-17,0 q-0.203,0 -0.352-0.148t-0.148-0.352l0-3 q0-0.203 0.148-0.352t 0.352-0.148l 17,0  q 0.203,0 0.352,0.148t 0.148,0.352zM 812,226.5l0,3 q0,0.203 -0.148,0.352t-0.352,0.148l-27,0 q-0.203,0 -0.352-0.148t-0.148-0.352l0-3 q0-0.203 0.148-0.352t 0.352-0.148l 27,0 q 0.203,0 0.352,0.148t 0.148,0.352z"></path><path d="M 868,229.5l0,17 q0,0.656 -0.609,0.922q-0.203,0.078 -0.391,0.078q-0.422,0 -0.703-0.297l-6.297-6.297l0,2.594 q0,1.859 -1.32,3.18t-3.18,1.32l-11,0 q-1.859,0 -3.18-1.32t-1.32-3.18l0-11 q0-1.859 1.32-3.18t 3.18-1.32l 11,0 q 1.859,0 3.18,1.32t 1.32,3.18l0,2.578 l 6.297-6.281q 0.281-0.297 0.703-0.297q 0.188,0 0.391,0.078 q 0.609,0.266 0.609,0.922z"></path><path d="M 10,289q0,1.25 -0.875,2.125t-2.125,0.875t-2.125-0.875t-0.875-2.125t 0.875-2.125t 2.125-0.875t 2.125,0.875t 0.875,2.125zM 26,295l0,7 l-22,0 l0-3 l 5-5l 2.5,2.5l 8-8zM 27.5,284l-25,0 q-0.203,0 -0.352,0.148t-0.148,0.352l0,19 q0,0.203 0.148,0.352t 0.352,0.148l 25,0 q 0.203,0 0.352-0.148t 0.148-0.352l0-19  q0-0.203 -0.148-0.352t-0.352-0.148zM 30,284.5l0,19 q0,1.031 -0.734,1.766t-1.766,0.734l-25,0 q-1.031,0 -1.766-0.734t-0.734-1.766l0-19 q0-1.031 0.734-1.766t 1.766-0.734l 25,0 q 1.031,0 1.766,0.734t 0.734,1.766z"></path><path d="M 61.672,304l 1.422-1.422l-3.672-3.672l-1.422,1.422l0,1.672 l 2,0 l0,2 l 1.672,0 zM 69.844,289.5q0-0.344 -0.344-0.344q-0.156,0 -0.266,0.109l-8.469,8.469q-0.109,0.109 -0.109,0.266q0,0.344 0.344,0.344q 0.156,0 0.266-0.109l 8.469-8.469q 0.109-0.109 0.109-0.266zM 69,286.5l 6.5,6.5l-13,13l-6.5,0 l0-6.5 zM 79.672,288q0,0.828 -0.578,1.406l-2.594,2.594l-6.5-6.5l 2.594-2.578q 0.563-0.594 1.406-0.594 q 0.828,0 1.422,0.594l 3.672,3.656q 0.578,0.609 0.578,1.422z"></path><path d="M 124,290q0-1.656 -1.172-2.828t-2.828-1.172t-2.828,1.172t-1.172,2.828t 1.172,2.828t 2.828,1.172t 2.828-1.172t 1.172-2.828zM 128,290q0,1.703 -0.516,2.797l-5.688,12.094q-0.25,0.516 -0.742,0.813t-1.055,0.297t-1.055-0.297t-0.727-0.813l-5.703-12.094q-0.516-1.094 -0.516-2.797q0-3.313 2.344-5.656t 5.656-2.344t 5.656,2.344t 2.344,5.656z"></path><path d="M 189.625,294.484l-20.75,11.531q-0.359,0.203 -0.617,0.047t-0.258-0.563l0-23 q0-0.406 0.258-0.563t 0.617,0.047l 20.75,11.531q 0.359,0.203 0.359,0.484t-0.359,0.484z"></path><path d="M 243,295l0-2 q0-0.406 -0.297-0.703t-0.703-0.297l-4,0 l0-4 q0-0.406 -0.297-0.703t-0.703-0.297l-2,0 q-0.406,0 -0.703,0.297t-0.297,0.703l0,4 l-4,0 q-0.406,0 -0.703,0.297t-0.297,0.703l0,2 q0,0.406 0.297,0.703t 0.703,0.297l 4,0 l0,4 q0,0.406 0.297,0.703t 0.703,0.297l 2,0 q 0.406,0 0.703-0.297t 0.297-0.703l0-4 l 4,0 q 0.406,0 0.703-0.297t 0.297-0.703zM 248,294q0,3.266 -1.609,6.023 t-4.367,4.367t-6.023,1.609t-6.023-1.609t-4.367-4.367t-1.609-6.023t 1.609-6.023t 4.367-4.367t 6.023-1.609t 6.023,1.609t 4.367,4.367t 1.609,6.023z"></path><path d="M 299,295l0-2 q0-0.406 -0.297-0.703t-0.703-0.297l-12,0 q-0.406,0 -0.703,0.297t-0.297,0.703l0,2 q0,0.406 0.297,0.703t 0.703,0.297l 12,0 q 0.406,0 0.703-0.297t 0.297-0.703zM 304,294q0,3.266 -1.609,6.023t-4.367,4.367t-6.023,1.609t-6.023-1.609t-4.367-4.367t-1.609-6.023t 1.609-6.023t 4.367-4.367t 6.023-1.609t 6.023,1.609t 4.367,4.367 t 1.609,6.023z"></path><path d="M 353.953,297.531q0-0.406 -0.297-0.703l-2.828-2.828l 2.828-2.828q 0.297-0.297 0.297-0.703q0-0.422 -0.297-0.719l-1.406-1.406q-0.297-0.297 -0.719-0.297q-0.406,0 -0.703,0.297l-2.828,2.828l-2.828-2.828q-0.297-0.297 -0.703-0.297q-0.422,0 -0.719,0.297l-1.406,1.406q-0.297,0.297 -0.297,0.719q0,0.406 0.297,0.703l 2.828,2.828l-2.828,2.828q-0.297,0.297 -0.297,0.703q0,0.422 0.297,0.719l 1.406,1.406q 0.297,0.297 0.719,0.297 q 0.406,0 0.703-0.297l 2.828-2.828l 2.828,2.828q 0.297,0.297 0.703,0.297q 0.422,0 0.719-0.297l 1.406-1.406q 0.297-0.297 0.297-0.719zM 360,294q0,3.266 -1.609,6.023t-4.367,4.367t-6.023,1.609t-6.023-1.609t-4.367-4.367t-1.609-6.023t 1.609-6.023t 4.367-4.367t 6.023-1.609t 6.023,1.609t 4.367,4.367t 1.609,6.023z"></path><path d="M 412.063,291.469q0-0.438 -0.281-0.719l-1.422-1.406q-0.297-0.297 -0.703-0.297t-0.703,0.297l-6.375,6.359l-3.531-3.531q-0.297-0.297 -0.703-0.297t-0.703,0.297l-1.422,1.406q-0.281,0.281 -0.281,0.719q0,0.422 0.281,0.703l 5.656,5.656q 0.297,0.297 0.703,0.297q 0.422,0 0.719-0.297l 8.484-8.484q 0.281-0.281 0.281-0.703zM 416,294q0,3.266 -1.609,6.023t-4.367,4.367t-6.023,1.609t-6.023-1.609 t-4.367-4.367t-1.609-6.023t 1.609-6.023t 4.367-4.367t 6.023-1.609t 6.023,1.609t 4.367,4.367t 1.609,6.023z"></path><path d="M 450,306l 4.5,0 l0-4.5 l-4.5,0 l0,4.5 zM 455.5,306l 5,0 l0-4.5 l-5,0 l0,4.5 zM 450,300.5l 4.5,0 l0-5 l-4.5,0 l0,5 zM 455.5,300.5l 5,0 l0-5 l-5,0 l0,5 zM 450,294.5l 4.5,0 l0-4.5 l-4.5,0 l0,4.5 zM 461.5,306l 5,0 l0-4.5 l-5,0 l0,4.5 zM 455.5,294.5l 5,0 l0-4.5 l-5,0 l0,4.5 zM 467.5,306l 4.5,0 l0-4.5 l-4.5,0 l0,4.5 zM 461.5,300.5l 5,0 l0-5 l-5,0 l0,5 z M 456,287l0-4.5 q0-0.203 -0.148-0.352t-0.352-0.148l-1,0 q-0.203,0 -0.352,0.148t-0.148,0.352l0,4.5 q0,0.203 0.148,0.352t 0.352,0.148l 1,0 q 0.203,0 0.352-0.148t 0.148-0.352zM 467.5,300.5l 4.5,0 l0-5 l-4.5,0 l0,5 zM 461.5,294.5l 5,0 l0-4.5 l-5,0 l0,4.5 zM 467.5,294.5l 4.5,0 l0-4.5 l-4.5,0 l0,4.5 zM 468,287l0-4.5 q0-0.203 -0.148-0.352t-0.352-0.148l-1,0  q-0.203,0 -0.352,0.148t-0.148,0.352l0,4.5 q0,0.203 0.148,0.352t 0.352,0.148l 1,0 q 0.203,0 0.352-0.148t 0.148-0.352zM 474,286l0,20 q0,0.813 -0.594,1.406t-1.406,0.594l-22,0 q-0.813,0 -1.406-0.594t-0.594-1.406l0-20 q0-0.813 0.594-1.406t 1.406-0.594l 2,0 l0-1.5 q0-1.031 0.734-1.766t 1.766-0.734l 1,0 q 1.031,0 1.766,0.734t 0.734,1.766l0,1.5 l 6,0 l0-1.5 q0-1.031 0.734-1.766t 1.766-0.734 l 1,0 q 1.031,0 1.766,0.734t 0.734,1.766l0,1.5 l 2,0 q 0.813,0 1.406,0.594t 0.594,1.406z"></path><path d="M 526.75,299q0-0.625 -0.438-1.063l-3.25-3.25q-0.438-0.438 -1.063-0.438q-0.656,0 -1.125,0.5q 0.047,0.047 0.297,0.289t 0.336,0.336t 0.234,0.297t 0.203,0.398t 0.055,0.43q0,0.625 -0.438,1.063t-1.063,0.438q-0.234,0 -0.43-0.055t-0.398-0.203t-0.297-0.234t-0.336-0.336t-0.289-0.297q-0.516,0.484 -0.516,1.141q0,0.625 0.438,1.063l 3.219,3.234q 0.422,0.422 1.063,0.422q 0.625,0 1.063-0.406 l 2.297-2.281q 0.438-0.438 0.438-1.047zM 515.766,287.984q0-0.625 -0.438-1.063l-3.219-3.234q-0.438-0.438 -1.063-0.438q-0.609,0 -1.063,0.422l-2.297,2.281q-0.438,0.438 -0.438,1.047q0,0.625 0.438,1.063l 3.25,3.25q 0.422,0.422 1.063,0.422q 0.656,0 1.125-0.484q-0.047-0.047 -0.297-0.289t-0.336-0.336t-0.234-0.297t-0.203-0.398t-0.055-0.43q0-0.625 0.438-1.063t 1.063-0.438q 0.234,0 0.43,0.055t 0.398,0.203t 0.297,0.234 t 0.336,0.336t 0.289,0.297q 0.516-0.484 0.516-1.141zM 529.75,299q0,1.875 -1.328,3.172l-2.297,2.281q-1.297,1.297 -3.172,1.297q-1.891,0 -3.188-1.328l-3.219-3.234q-1.297-1.297 -1.297-3.172q0-1.922 1.375-3.266l-1.375-1.375q-1.344,1.375 -3.25,1.375q-1.875,0 -3.188-1.313l-3.25-3.25q-1.313-1.313 -1.313-3.188t 1.328-3.172l 2.297-2.281q 1.297-1.297 3.172-1.297q 1.891,0 3.188,1.328l 3.219,3.234 q 1.297,1.297 1.297,3.172q0,1.922 -1.375,3.266l 1.375,1.375q 1.344-1.375 3.25-1.375q 1.875,0 3.188,1.313l 3.25,3.25q 1.313,1.313 1.313,3.188z"></path><path d="M 575,294q 0.406,0 0.703,0.297t 0.297,0.703t-0.297,0.703t-0.703,0.297t-0.703-0.297t-0.297-0.703t 0.297-0.703t 0.703-0.297zM 579.688,295l 7.922,6.219q 0.438,0.313 0.391,0.875q-0.078,0.547 -0.547,0.797l-2,1q-0.203,0.109 -0.453,0.109q-0.266,0 -0.484-0.125l-10.781-6.047l-1.719,1.031q-0.125,0.063 -0.188,0.078q 0.219,0.766 0.156,1.516q-0.109,1.203 -0.875,2.305t-2.063,1.93q-2.063,1.313 -4.328,1.313 q-2.125,0 -3.469-1.219q-1.406-1.313 -1.234-3.234q 0.109-1.188 0.875-2.297t 2.047-1.938q 2.063-1.313 4.344-1.313q 1.297,0 2.359,0.484q 0.141-0.203 0.344-0.344l 1.906-1.141l-1.906-1.141q-0.203-0.141 -0.344-0.344q-1.063,0.484 -2.359,0.484q-2.281,0 -4.344-1.313q-1.281-0.828 -2.047-1.938t-0.875-2.297q-0.078-0.922 0.242-1.766t 0.992-1.453q 1.328-1.234 3.469-1.234q 2.266,0 4.328,1.313q 1.297,0.813 2.063,1.922t 0.875,2.313 q 0.063,0.75 -0.156,1.516q 0.063,0.016 0.188,0.078l 1.719,1.031l 10.781-6.047q 0.219-0.125 0.484-0.125q 0.25,0 0.453,0.109l 2,1q 0.469,0.25 0.547,0.797q 0.047,0.563 -0.391,0.875zM 569.047,290.938q 0.719-0.656 0.328-1.688t-1.656-1.828q-1.438-0.922 -3-0.922q-1.156,0 -1.766,0.563q-0.719,0.656 -0.328,1.688t 1.656,1.828q 1.438,0.922 3,0.922q 1.156,0 1.766-0.563zM 567.719,302.578q 1.266-0.797 1.656-1.828t-0.328-1.688 q-0.609-0.563 -1.766-0.563q-1.563,0 -3,0.922q-1.266,0.797 -1.656,1.828t 0.328,1.688q 0.609,0.563 1.766,0.563q 1.563,0 3-0.922zM 570.5,293l 1.5,0.906l0-0.172 q0-0.563 0.516-0.875l 0.219-0.125l-1.234-0.734l-0.406,0.406q-0.047,0.047 -0.156,0.172t-0.188,0.188q-0.031,0.031 -0.063,0.055t-0.047,0.039zM 574,296.5l 1.5,0.5l 11.5-9l-2-1l-12,6.734l0,1.766 l-2.5,1.5l 0.141,0.125q 0.031,0.031 0.109,0.094 q 0.063,0.063 0.172,0.188t 0.172,0.188l 0.406,0.406zM 585,303l 2-1l-8.125-6.375l-2.766,2.156q-0.031,0.047 -0.203,0.109z"></path><path d="M 642.5,286q 0.625,0 1.063,0.438t 0.438,1.063l0,19 q0,0.625 -0.438,1.063t-1.063,0.438l-15,0 q-0.625,0 -1.063-0.438t-0.438-1.063l0-4.5 l-8.5,0 q-0.625,0 -1.063-0.438t-0.438-1.063l0-10.5 q0-0.625 0.313-1.375t 0.75-1.188l 6.375-6.375q 0.438-0.438 1.188-0.75t 1.375-0.313l 6.5,0 q 0.625,0 1.063,0.438t 0.438,1.063l0,5.125 q 1.063-0.625 2-0.625l 6.5,0 zM 634,289.328l-4.672,4.672l 4.672,0 l0-4.672 zM 624,283.328l-4.672,4.672 l 4.672,0 l0-4.672 zM 627.063,293.438l 4.938-4.938l0-6.5 l-6,0 l0,6.5 q0,0.625 -0.438,1.063t-1.063,0.438l-6.5,0 l0,10 l 8,0 l0-4 q0-0.625 0.313-1.375t 0.75-1.188zM 642,306l0-18 l-6,0 l0,6.5 q0,0.625 -0.438,1.063t-1.063,0.438l-6.5,0 l0,10 l 14,0 z"></path><path d="M 693.938,301.641q0,1.828 -1.234,3.063t-3.063,1.234q-2.109,0 -3.672-1.563l-12.141-12.125q-1.766-1.797 -1.766-4.234q0-2.484 1.719-4.219t 4.203-1.734q 2.469,0 4.266,1.766l 9.453,9.469q 0.156,0.156 0.156,0.344q0,0.25 -0.477,0.727t-0.727,0.477q-0.203,0 -0.359-0.156l-9.469-9.484q-1.234-1.203 -2.828-1.203q-1.656,0 -2.797,1.172t-1.141,2.828q0,1.641 1.188,2.828 l 12.125,12.141q 0.984,0.984 2.266,0.984q 1,0 1.656-0.656t 0.656-1.656q0-1.281 -0.984-2.266l-9.078-9.078q-0.406-0.375 -0.938-0.375q-0.453,0 -0.75,0.297t-0.297,0.75q0,0.5 0.391,0.922l 6.406,6.406q 0.156,0.156 0.156,0.344q0,0.25 -0.484,0.734t-0.734,0.484q-0.188,0 -0.344-0.156l-6.406-6.406q-0.984-0.953 -0.984-2.328q0-1.281 0.891-2.172t 2.172-0.891q 1.375,0 2.328,0.984l 9.078,9.078q 1.563,1.531 1.563,3.672 z"></path><path d="M 734,304l 12,0 l0-6 l-12,0 l0,6 zM 748,304l 2,0 l0-14 q0-0.219 -0.156-0.602t-0.313-0.539l-4.391-4.391q-0.156-0.156 -0.531-0.313t-0.609-0.156l0,6.5 q0,0.625 -0.438,1.063t-1.063,0.438l-9,0 q-0.625,0 -1.063-0.438t-0.438-1.063l0-6.5 l-2,0 l0,20 l 2,0 l0-6.5 q0-0.625 0.438-1.063t 1.063-0.438l 13,0 q 0.625,0 1.063,0.438t 0.438,1.063l0,6.5 zM 742,289.5l0-5 q0-0.203 -0.148-0.352t-0.352-0.148 l-3,0 q-0.203,0 -0.352,0.148t-0.148,0.352l0,5 q0,0.203 0.148,0.352t 0.352,0.148l 3,0 q 0.203,0 0.352-0.148t 0.148-0.352zM 752,290l0,14.5 q0,0.625 -0.438,1.063t-1.063,0.438l-21,0 q-0.625,0 -1.063-0.438t-0.438-1.063l0-21 q0-0.625 0.438-1.063t 1.063-0.438l 14.5,0 q 0.625,0 1.375,0.313t 1.188,0.75l 4.375,4.375q 0.438,0.438 0.75,1.188t 0.313,1.375z"></path><path d="M 808,301l0,2 q0,0.406 -0.297,0.703t-0.703,0.297l-22,0 q-0.406,0 -0.703-0.297t-0.297-0.703l0-2 q0-0.406 0.297-0.703t 0.703-0.297l 22,0 q 0.406,0 0.703,0.297t 0.297,0.703zM 808,293l0,2 q0,0.406 -0.297,0.703t-0.703,0.297l-22,0 q-0.406,0 -0.703-0.297t-0.297-0.703l0-2 q0-0.406 0.297-0.703t 0.703-0.297l 22,0 q 0.406,0 0.703,0.297t 0.297,0.703zM 808,285l0,2 q0,0.406 -0.297,0.703 t-0.703,0.297l-22,0 q-0.406,0 -0.703-0.297t-0.297-0.703l0-2 q0-0.406 0.297-0.703t 0.703-0.297l 22,0 q 0.406,0 0.703,0.297t 0.297,0.703z"></path><path d="M 846,302q0,1.25 -0.875,2.125t-2.125,0.875t-2.125-0.875t-0.875-2.125t 0.875-2.125t 2.125-0.875t 2.125,0.875t 0.875,2.125zM 846,294q0,1.25 -0.875,2.125t-2.125,0.875t-2.125-0.875t-0.875-2.125t 0.875-2.125t 2.125-0.875t 2.125,0.875t 0.875,2.125zM 868,300.5l0,3 q0,0.203 -0.148,0.352t-0.352,0.148l-19,0 q-0.203,0 -0.352-0.148t-0.148-0.352l0-3 q0-0.203 0.148-0.352 t 0.352-0.148l 19,0 q 0.203,0 0.352,0.148t 0.148,0.352zM 846,286q0,1.25 -0.875,2.125t-2.125,0.875t-2.125-0.875t-0.875-2.125t 0.875-2.125t 2.125-0.875t 2.125,0.875t 0.875,2.125zM 868,292.5l0,3 q0,0.203 -0.148,0.352t-0.352,0.148l-19,0 q-0.203,0 -0.352-0.148t-0.148-0.352l0-3 q0-0.203 0.148-0.352t 0.352-0.148l 19,0 q 0.203,0 0.352,0.148t 0.148,0.352z M 868,284.5l0,3 q0,0.203 -0.148,0.352t-0.352,0.148l-19,0 q-0.203,0 -0.352-0.148t-0.148-0.352l0-3 q0-0.203 0.148-0.352t 0.352-0.148l 19,0 q 0.203,0 0.352,0.148t 0.148,0.352z"></path><path d="M 5.953,361.313q0,1.25 -0.852,1.969t-2.117,0.719q-1.656,0 -2.688-1.031l 0.891-1.375q 0.766,0.703 1.656,0.703q 0.453,0 0.789-0.227t 0.336-0.664q0-1 -1.641-0.875l-0.406-0.875q 0.125-0.156 0.508-0.68t 0.664-0.844t 0.578-0.602l0-0.016 q-0.25,0 -0.758,0.016t-0.758,0.016l0,0.828 l-1.656,0 l0-2.375 l 5.203,0 l0,1.375 l-1.484,1.797q 0.797,0.188 1.266,0.766t 0.469,1.375zM 5.984,351.516l0,2.484 l-5.656,0  q-0.094-0.563 -0.094-0.844q0-0.797 0.367-1.453t 0.883-1.063t 1.031-0.742t 0.883-0.68t 0.367-0.703q0-0.391 -0.227-0.602t-0.617-0.211q-0.719,0 -1.266,0.906l-1.328-0.922q 0.375-0.797 1.117-1.242t 1.648-0.445q 1.141,0 1.922,0.648t 0.781,1.758q0,0.781 -0.531,1.43t-1.172,1.008t-1.18,0.789t-0.555,0.82l 1.984,0 l0-0.938 l 1.641,0 zM 28,356.5l0,3 q0,0.203 -0.148,0.352 t-0.352,0.148l-19,0 q-0.203,0 -0.352-0.148t-0.148-0.352l0-3 q0-0.219 0.141-0.359t 0.359-0.141l 19,0 q 0.203,0 0.352,0.148t 0.148,0.352zM 6,342.453l0,1.547 l-5.234,0 l0-1.547 l 1.672,0 q0-0.641 0.008-1.906t 0.008-1.891l0-0.188 l-0.031,0 q-0.125,0.266 -0.781,0.844l-1.109-1.188l 2.125-1.984l 1.656,0 l0,6.313 l 1.688,0 zM 28,348.5l0,3 q0,0.203 -0.148,0.352t-0.352,0.148l-19,0 q-0.203,0 -0.352-0.148 t-0.148-0.352l0-3 q0-0.219 0.141-0.359t 0.359-0.141l 19,0 q 0.203,0 0.352,0.148t 0.148,0.352zM 28,340.5l0,3 q0,0.203 -0.148,0.352t-0.352,0.148l-19,0 q-0.203,0 -0.352-0.148t-0.148-0.352l0-3 q0-0.203 0.148-0.352t 0.352-0.148l 19,0 q 0.203,0 0.352,0.148t 0.148,0.352z"></path><path d="M 64,357.5l0-3 q0-0.219 -0.141-0.359t-0.359-0.141l-5,0 q-0.219,0 -0.359,0.141t-0.141,0.359l0,3 q0,0.219 0.141,0.359t 0.359,0.141l 5,0 q 0.219,0 0.359-0.141t 0.141-0.359zM 64,351.5l0-3 q0-0.219 -0.141-0.359t-0.359-0.141l-5,0 q-0.219,0 -0.359,0.141t-0.141,0.359l0,3 q0,0.219 0.141,0.359t 0.359,0.141l 5,0 q 0.219,0 0.359-0.141t 0.141-0.359zM 72,357.5l0-3 q0-0.219 -0.141-0.359t-0.359-0.141l-5,0 q-0.219,0 -0.359,0.141t-0.141,0.359 l0,3 q0,0.219 0.141,0.359t 0.359,0.141l 5,0 q 0.219,0 0.359-0.141t 0.141-0.359zM 64,345.5l0-3 q0-0.219 -0.141-0.359t-0.359-0.141l-5,0 q-0.219,0 -0.359,0.141t-0.141,0.359l0,3 q0,0.219 0.141,0.359t 0.359,0.141l 5,0 q 0.219,0 0.359-0.141t 0.141-0.359zM 72,351.5l0-3 q0-0.219 -0.141-0.359t-0.359-0.141l-5,0 q-0.219,0 -0.359,0.141t-0.141,0.359l0,3 q0,0.219 0.141,0.359t 0.359,0.141l 5,0 q 0.219,0 0.359-0.141t 0.141-0.359zM 80,357.5l0-3  q0-0.219 -0.141-0.359t-0.359-0.141l-5,0 q-0.219,0 -0.359,0.141t-0.141,0.359l0,3 q0,0.219 0.141,0.359t 0.359,0.141l 5,0 q 0.219,0 0.359-0.141t 0.141-0.359zM 72,345.5l0-3 q0-0.219 -0.141-0.359t-0.359-0.141l-5,0 q-0.219,0 -0.359,0.141t-0.141,0.359l0,3 q0,0.219 0.141,0.359t 0.359,0.141l 5,0 q 0.219,0 0.359-0.141t 0.141-0.359zM 80,351.5l0-3 q0-0.219 -0.141-0.359t-0.359-0.141l-5,0 q-0.219,0 -0.359,0.141t-0.141,0.359l0,3  q0,0.219 0.141,0.359t 0.359,0.141l 5,0 q 0.219,0 0.359-0.141t 0.141-0.359zM 80,345.5l0-3 q0-0.219 -0.141-0.359t-0.359-0.141l-5,0 q-0.219,0 -0.359,0.141t-0.141,0.359l0,3 q0,0.219 0.141,0.359t 0.359,0.141l 5,0 q 0.219,0 0.359-0.141t 0.141-0.359zM 82,340.5l0,17 q0,1.031 -0.734,1.766t-1.766,0.734l-21,0 q-1.031,0 -1.766-0.734t-0.734-1.766l0-17 q0-1.031 0.734-1.766t 1.766-0.734l 21,0 q 1.031,0 1.766,0.734t 0.734,1.766 z"></path><path d="M 114.5,360l 9.5,0 l0-18 l-10,0 l0,17.5 q0,0.203 0.148,0.352t 0.352,0.148zM 136,359.5l0-17.5 l-10,0 l0,18 l 9.5,0 q 0.203,0 0.352-0.148t 0.148-0.352zM 138,340.5l0,19 q0,1.031 -0.734,1.766t-1.766,0.734l-21,0 q-1.031,0 -1.766-0.734t-0.734-1.766l0-19 q0-1.031 0.734-1.766t 1.766-0.734l 21,0 q 1.031,0 1.766,0.734t 0.734,1.766z"></path><path d="M 192,350q0,2.438 -0.953,4.656t-2.563,3.828t-3.828,2.563t-4.656,0.953q-2.688,0 -5.109-1.133t-4.125-3.195q-0.109-0.156 -0.102-0.352t 0.133-0.32l 2.141-2.156q 0.156-0.141 0.391-0.141q 0.25,0.031 0.359,0.188q 1.141,1.484 2.797,2.297t 3.516,0.813q 1.625,0 3.102-0.633t 2.555-1.711t 1.711-2.555t 0.633-3.102t-0.633-3.102t-1.711-2.555 t-2.555-1.711t-3.102-0.633q-1.531,0 -2.938,0.555t-2.5,1.586l 2.141,2.156q 0.484,0.469 0.219,1.078q-0.266,0.625 -0.922,0.625l-7,0 q-0.406,0 -0.703-0.297t-0.297-0.703l0-7 q0-0.656 0.625-0.922q 0.609-0.266 1.078,0.219l 2.031,2.016q 1.672-1.578 3.82-2.445t 4.445-0.867q 2.438,0 4.656,0.953t 3.828,2.563t 2.563,3.828t 0.953,4.656z"></path><path d="M 252,355.5l0,5 q0,0.625 -0.438,1.063t-1.063,0.438l-5,0 q-0.625,0 -1.063-0.438t-0.438-1.063l0-5 q0-0.625 0.438-1.063t 1.063-0.438l 1.5,0 l0-3 l-8,0 l0,3 l 1.5,0 q 0.625,0 1.063,0.438t 0.438,1.063l0,5 q0,0.625 -0.438,1.063t-1.063,0.438l-5,0 q-0.625,0 -1.063-0.438t-0.438-1.063l0-5 q0-0.625 0.438-1.063t 1.063-0.438l 1.5,0 l0-3 l-8,0 l0,3 l 1.5,0 q 0.625,0 1.063,0.438t 0.438,1.063l0,5  q0,0.625 -0.438,1.063t-1.063,0.438l-5,0 q-0.625,0 -1.063-0.438t-0.438-1.063l0-5 q0-0.625 0.438-1.063t 1.063-0.438l 1.5,0 l0-3 q0-0.813 0.594-1.406t 1.406-0.594l 8,0 l0-3 l-1.5,0 q-0.625,0 -1.063-0.438t-0.438-1.063l0-5 q0-0.625 0.438-1.063t 1.063-0.438l 5,0 q 0.625,0 1.063,0.438t 0.438,1.063l0,5 q0,0.625 -0.438,1.063t-1.063,0.438l-1.5,0 l0,3 l 8,0 q 0.813,0 1.406,0.594t 0.594,1.406l0,3 l 1.5,0 q 0.625,0 1.063,0.438t 0.438,1.063 z"></path><path d="M 292,351l0,6 q0,1.25 -0.875,2.125t-2.125,0.875l-6,0 q-1.25,0 -2.125-0.875t-0.875-2.125l0-11 q0-1.625 0.633-3.102t 1.711-2.555t 2.555-1.711t 3.102-0.633l 1,0 q 0.406,0 0.703,0.297t 0.297,0.703l0,2 q0,0.406 -0.297,0.703t-0.703,0.297l-1,0 q-1.656,0 -2.828,1.172t-1.172,2.828l0,0.5 q0,0.625 0.438,1.063t 1.063,0.438l 3.5,0 q 1.25,0 2.125,0.875t 0.875,2.125z M 306,351l0,6 q0,1.25 -0.875,2.125t-2.125,0.875l-6,0 q-1.25,0 -2.125-0.875t-0.875-2.125l0-11 q0-1.625 0.633-3.102t 1.711-2.555t 2.555-1.711t 3.102-0.633l 1,0 q 0.406,0 0.703,0.297t 0.297,0.703l0,2 q0,0.406 -0.297,0.703t-0.703,0.297l-1,0 q-1.656,0 -2.828,1.172t-1.172,2.828l0,0.5 q0,0.625 0.438,1.063t 1.063,0.438l 3.5,0 q 1.25,0 2.125,0.875t 0.875,2.125z"></path><path d="M 348,341l0,11 q0,1.625 -0.633,3.102t-1.711,2.555t-2.555,1.711t-3.102,0.633l-1,0 q-0.406,0 -0.703-0.297t-0.297-0.703l0-2 q0-0.406 0.297-0.703t 0.703-0.297l 1,0 q 1.656,0 2.828-1.172t 1.172-2.828l0-0.5 q0-0.625 -0.438-1.063t-1.063-0.438l-3.5,0 q-1.25,0 -2.125-0.875t-0.875-2.125l0-6 q0-1.25 0.875-2.125t 2.125-0.875l 6,0 q 1.25,0 2.125,0.875t 0.875,2.125zM 362,341 l0,11 q0,1.625 -0.633,3.102t-1.711,2.555t-2.555,1.711t-3.102,0.633l-1,0 q-0.406,0 -0.703-0.297t-0.297-0.703l0-2 q0-0.406 0.297-0.703t 0.703-0.297l 1,0 q 1.656,0 2.828-1.172t 1.172-2.828l0-0.5 q0-0.625 -0.438-1.063t-1.063-0.438l-3.5,0 q-1.25,0 -2.125-0.875t-0.875-2.125l0-6 q0-1.25 0.875-2.125t 2.125-0.875l 6,0 q 1.25,0 2.125,0.875t 0.875,2.125z"></path><path d="M 402,355q0,0.625 -0.195,1.281t-0.672,1.188t-1.133,0.531t-1.133-0.531t-0.672-1.188t-0.195-1.281t 0.195-1.281t 0.672-1.188t 1.133-0.531t 1.133,0.531t 0.672,1.188t 0.195,1.281zM 412,355q0,0.625 -0.195,1.281t-0.672,1.188t-1.133,0.531t-1.133-0.531t-0.672-1.188t-0.195-1.281t 0.195-1.281t 0.672-1.188t 1.133-0.531t 1.133,0.531t 0.672,1.188t 0.195,1.281zM 414.5,355 q0-1.875 -1.078-3.188t-2.922-1.313q-0.641,0 -3.047,0.328q-1.109,0.172 -2.453,0.172t-2.453-0.172q-2.375-0.328 -3.047-0.328q-1.844,0 -2.922,1.313t-1.078,3.188q0,1.375 0.5,2.398t 1.266,1.609t 1.906,0.938t 2.188,0.461t 2.328,0.109l 2.625,0 q 1.281,0 2.328-0.109t 2.188-0.461t 1.906-0.938t 1.266-1.609t 0.5-2.398zM 418,352.25q0,3.234 -0.953,5.172q-0.594,1.203 -1.648,2.078t-2.203,1.344 t-2.656,0.742t-2.68,0.344t-2.609,0.070q-1.219,0 -2.219-0.047t-2.305-0.195t-2.383-0.469t-2.141-0.805t-1.891-1.266t-1.344-1.797q-0.969-1.922 -0.969-5.172q0-3.703 2.125-6.188q-0.422-1.281 -0.422-2.656q0-1.813 0.797-3.406q 1.688,0 2.969,0.617t 2.953,1.93q 2.297-0.547 4.828-0.547q 2.313,0 4.375,0.5q 1.641-1.281 2.922-1.891t 2.953-0.609q 0.797,1.594 0.797,3.406 q0,1.359 -0.422,2.625q 2.125,2.5 2.125,6.219z"></path><path d="M 454.859,355.859l-4,4q-0.156,0.141 -0.359,0.141q-0.188,0 -0.359-0.141q-0.141-0.156 -0.141-0.359t 0.141-0.359l 4-4q 0.156-0.141 0.359-0.141t 0.359,0.141q 0.141,0.156 0.141,0.359t-0.141,0.359zM 457.5,356.5l0,5 q0,0.219 -0.141,0.359t-0.359,0.141t-0.359-0.141t-0.141-0.359l0-5 q0-0.219 0.141-0.359t 0.359-0.141t 0.359,0.141t 0.141,0.359zM 454,353q0,0.219 -0.141,0.359t-0.359,0.141l-5,0 q-0.219,0 -0.359-0.141t-0.141-0.359t 0.141-0.359t 0.359-0.141l 5,0  q 0.219,0 0.359,0.141t 0.141,0.359zM 473.75,355q0,1.875 -1.328,3.172l-2.297,2.281q-1.297,1.297 -3.172,1.297q-1.891,0 -3.188-1.328l-5.219-5.234q-0.328-0.328 -0.656-0.875l 3.734-0.281l 4.266,4.281q 0.422,0.422 1.063,0.43t 1.063-0.414l 2.297-2.281q 0.438-0.438 0.438-1.047q0-0.625 -0.438-1.063l-4.281-4.297l 0.281-3.734q 0.547,0.328 0.875,0.656l 5.25,5.25q 1.313,1.344 1.313,3.188zM 464.109,343.688l-3.734,0.281 l-4.266-4.281q-0.438-0.438 -1.063-0.438q-0.609,0 -1.063,0.422l-2.297,2.281q-0.438,0.438 -0.438,1.047q0,0.625 0.438,1.063l 4.281,4.281l-0.281,3.75q-0.547-0.328 -0.875-0.656l-5.25-5.25q-1.313-1.344 -1.313-3.188q0-1.875 1.328-3.172l 2.297-2.281q 1.297-1.297 3.172-1.297q 1.891,0 3.188,1.328l 5.219,5.234q 0.328,0.328 0.656,0.875zM 474,345q0,0.219 -0.141,0.359t-0.359,0.141l-5,0 q-0.219,0 -0.359-0.141 t-0.141-0.359t 0.141-0.359t 0.359-0.141l 5,0 q 0.219,0 0.359,0.141t 0.141,0.359zM 465.5,336.5l0,5 q0,0.219 -0.141,0.359t-0.359,0.141t-0.359-0.141t-0.141-0.359l0-5 q0-0.219 0.141-0.359t 0.359-0.141t 0.359,0.141t 0.141,0.359zM 471.859,338.859l-4,4q-0.172,0.141 -0.359,0.141t-0.359-0.141q-0.141-0.156 -0.141-0.359t 0.141-0.359l 4-4q 0.156-0.141 0.359-0.141t 0.359,0.141q 0.141,0.156 0.141,0.359t-0.141,0.359z"></path><path d="M 518.016,357.391l0,2.609 l-3.875,0 l-2.484-3.938l-0.375-0.656q-0.125-0.141 -0.172-0.328l-0.047,0 l-0.141,0.328q-0.156,0.313 -0.391,0.688l-2.422,3.906l-4.031,0 l0-2.609 l 2,0 l 3.078-4.547l-2.891-4.25l-2.141,0 l0-2.625 l 4.313,0 l 2.172,3.563q 0.031,0.063 0.359,0.656q 0.125,0.141 0.172,0.328l 0.047,0 q 0.047-0.141 0.172-0.328l 0.391-0.656l 2.188-3.563l 4.016,0 l0,2.625 l-1.953,0 l-2.875,4.172l 3.188,4.625l 1.703,0 zM 527.969,346.781l0,3.219 l-8.031,0 l-0.047-0.422 q-0.063-0.438 -0.063-0.719q0-1 0.406-1.828t 1.016-1.352t 1.313-1.016t 1.313-0.852t 1.016-0.844t 0.406-1q0-0.594 -0.461-0.977t-1.102-0.383q-0.797,0 -1.516,0.609q-0.219,0.172 -0.563,0.594l-1.641-1.438q 0.406-0.578 0.984-1.031q 1.297-1.016 2.938-1.016q 1.719,0 2.781,0.93t 1.063,2.477q0,0.875 -0.383,1.609t-0.969,1.195t-1.273,0.914t-1.281,0.789t-1.023,0.805t-0.477,0.984l 3.625,0 l0-1.25  l 1.969,0 z"></path><path d="M 574.016,357.391l0,2.609 l-3.875,0 l-2.484-3.938l-0.375-0.656q-0.125-0.141 -0.172-0.328l-0.047,0 l-0.141,0.328q-0.156,0.313 -0.391,0.688l-2.422,3.906l-4.031,0 l0-2.609 l 2,0 l 3.078-4.547l-2.891-4.25l-2.141,0 l0-2.625 l 4.313,0 l 2.172,3.563q 0.031,0.063 0.359,0.656q 0.125,0.141 0.172,0.328l 0.047,0 q 0.047-0.141 0.172-0.328l 0.391-0.656l 2.188-3.563l 4.016,0 l0,2.625 l-1.953,0 l-2.875,4.172l 3.188,4.625l 1.703,0 zM 584,360.781l0,3.219 l-8.031,0 l-0.063-0.422 q-0.047-0.703 -0.047-0.719q0-1 0.406-1.828t 1.016-1.352t 1.313-1.016t 1.313-0.852t 1.016-0.844t 0.406-1q0-0.594 -0.461-0.977t-1.102-0.383q-0.797,0 -1.516,0.609q-0.219,0.172 -0.563,0.594l-1.641-1.438q 0.406-0.578 0.984-1.031q 1.25-1.016 2.938-1.016q 1.719,0 2.781,0.93t 1.063,2.477q0,1.031 -0.539,1.852t-1.313,1.344t-1.555,0.977t-1.359,0.984t-0.641,1.141l 3.625,0 l0-1.25 l 1.969,0 z"></path><path d="M 634,347l0,2 q0,3.453 -2.305,6.008t-5.695,2.93l0,2.063 l 4,0 q 0.406,0 0.703,0.297t 0.297,0.703t-0.297,0.703t-0.703,0.297l-10,0 q-0.406,0 -0.703-0.297t-0.297-0.703t 0.297-0.703t 0.703-0.297l 4,0 l0-2.063 q-3.391-0.375 -5.695-2.93t-2.305-6.008l0-2 q0-0.406 0.297-0.703t 0.703-0.297t 0.703,0.297t 0.297,0.703l0,2 q0,2.891 2.055,4.945t 4.945,2.055 t 4.945-2.055t 2.055-4.945l0-2 q0-0.406 0.297-0.703t 0.703-0.297t 0.703,0.297t 0.297,0.703zM 630,341l0,8 q0,2.063 -1.469,3.531t-3.531,1.469t-3.531-1.469t-1.469-3.531l0-8 q0-2.063 1.469-3.531t 3.531-1.469t 3.531,1.469t 1.469,3.531z"></path><path d="M 676.234,350.766l-1.578,1.578q-0.656-1.609 -0.656-3.344l0-2 q0-0.406 0.297-0.703t 0.703-0.297t 0.703,0.297t 0.297,0.703l0,2 q0,0.828 0.234,1.766zM 693.641,341.359l-5.641,5.641l0,2 q0,2.063 -1.469,3.531t-3.531,1.469q-0.859,0 -1.703-0.297l-1.5,1.5q 1.516,0.797 3.203,0.797q 2.891,0 4.945-2.055t 2.055-4.945l0-2 q0-0.406 0.297-0.703t 0.703-0.297t 0.703,0.297t 0.297,0.703l0,2  q0,3.453 -2.305,6.008t-5.695,2.93l0,2.063 l 4,0 q 0.406,0 0.703,0.297t 0.297,0.703t-0.297,0.703t-0.703,0.297l-10,0 q-0.406,0 -0.703-0.297t-0.297-0.703t 0.297-0.703t 0.703-0.297l 4,0 l0-2.063 q-1.953-0.203 -3.672-1.266l-3.969,3.969q-0.156,0.156 -0.359,0.156t-0.359-0.156l-1.281-1.281q-0.156-0.156 -0.156-0.359t 0.156-0.359l 19.281-19.281q 0.156-0.156 0.359-0.156t 0.359,0.156l 1.281,1.281q 0.156,0.156 0.156,0.359 t-0.156,0.359zM 687.703,339.297l-9.703,9.703l0-8 q0-2.063 1.469-3.531t 3.531-1.469q 1.594,0 2.883,0.922t 1.82,2.375z"></path><path d="M 745,351l0-10 l-7,0 l0,17.766 q 1.859-0.984 3.328-2.141q 3.672-2.875 3.672-5.625zM 748,339l0,12 q0,1.344 -0.523,2.664t-1.297,2.344t-1.844,1.992t-1.977,1.609t-1.891,1.211t-1.398,0.773t-0.664,0.313q-0.188,0.094 -0.406,0.094t-0.406-0.094q-0.25-0.109 -0.664-0.313t-1.398-0.773t-1.891-1.211t-1.977-1.609t-1.844-1.992t-1.297-2.344 t-0.523-2.664l0-12 q0-0.406 0.297-0.703t 0.703-0.297l 18,0 q 0.406,0 0.703,0.297t 0.297,0.703z"></path><path d="M 801.656,345.328l 0.25-2.734l-13.813,0 l 0.734,8.344l 9.563,0 l-0.344,3.563l-3.078,0.828l-3.063-0.828l-0.203-2.188l-2.734,0 l 0.344,4.344l 5.656,1.563l 0.063,0 l0-0.016 l 5.609-1.547l 0.781-8.5l-10.063,0 l-0.234-2.828l 10.531,0 zM 784,338l 22,0 l-2,22.469l-9.031,2.531l-8.969-2.531z"></path><path d="M 844.297,338l 23.516,0 l-4.156,20.828l-12.563,4.172l-10.906-4.172l 1.109-5.563l 4.641,0 l-0.453,2.297l 6.594,2.516l 7.594-2.516l 1.063-5.297l-18.875,0 l 0.906-4.641l 18.891,0 l 0.594-2.984l-18.875,0 z"></path><path d="M 6,403.5l0,3 q0,0.625 -0.438,1.063t-1.063,0.438l-3,0 q-0.625,0 -1.063-0.438t-0.438-1.063l0-3 q0-0.625 0.438-1.063t 1.063-0.438l 3,0 q 0.625,0 1.063,0.438t 0.438,1.063zM 14,403.5l0,3 q0,0.625 -0.438,1.063t-1.063,0.438l-3,0 q-0.625,0 -1.063-0.438t-0.438-1.063l0-3 q0-0.625 0.438-1.063t 1.063-0.438l 3,0 q 0.625,0 1.063,0.438t 0.438,1.063zM 22,403.5l0,3 q0,0.625 -0.438,1.063t-1.063,0.438l-3,0  q-0.625,0 -1.063-0.438t-0.438-1.063l0-3 q0-0.625 0.438-1.063t 1.063-0.438l 3,0 q 0.625,0 1.063,0.438t 0.438,1.063z"></path><path d="M 62,411.5l0,3 q0,0.625 -0.438,1.063t-1.063,0.438l-3,0 q-0.625,0 -1.063-0.438t-0.438-1.063l0-3 q0-0.625 0.438-1.063t 1.063-0.438l 3,0 q 0.625,0 1.063,0.438t 0.438,1.063zM 62,403.5l0,3 q0,0.625 -0.438,1.063t-1.063,0.438l-3,0 q-0.625,0 -1.063-0.438t-0.438-1.063l0-3 q0-0.625 0.438-1.063t 1.063-0.438l 3,0 q 0.625,0 1.063,0.438t 0.438,1.063zM 62,395.5l0,3 q0,0.625 -0.438,1.063t-1.063,0.438l-3,0  q-0.625,0 -1.063-0.438t-0.438-1.063l0-3 q0-0.625 0.438-1.063t 1.063-0.438l 3,0 q 0.625,0 1.063,0.438t 0.438,1.063z"></path><path d="M 124,394q 3.266,0 6.023,1.609t 4.367,4.367t 1.609,6.023t-1.609,6.023t-4.367,4.367t-6.023,1.609t-6.023-1.609t-4.367-4.367t-1.609-6.023t 1.609-6.023t 4.367-4.367t 6.023-1.609zM 130,406.859q 0.5-0.281 0.5-0.859t-0.5-0.859l-8.5-5q-0.484-0.297 -1-0.016q-0.5,0.297 -0.5,0.875l0,10 q0,0.578 0.5,0.875 q 0.25,0.125 0.5,0.125q 0.266,0 0.5-0.141z"></path><path d="M 185.891,402.547q 0.281,0.547 -0.078,1.031l-5,7q-0.297,0.422 -0.813,0.422t-0.813-0.422l-5-7q-0.359-0.484 -0.078-1.031q 0.266-0.547 0.891-0.547l 10,0 q 0.625,0 0.891,0.547zM 188,413.5l0-15 q0-0.203 -0.148-0.352t-0.352-0.148l-15,0 q-0.203,0 -0.352,0.148t-0.148,0.352l0,15 q0,0.203 0.148,0.352t 0.352,0.148l 15,0 q 0.203,0 0.352-0.148t 0.148-0.352zM 192,398.5 l0,15 q0,1.859 -1.32,3.18t-3.18,1.32l-15,0 q-1.859,0 -3.18-1.32t-1.32-3.18l0-15 q0-1.859 1.32-3.18t 3.18-1.32l 15,0 q 1.859,0 3.18,1.32t 1.32,3.18z"></path><path d="M 242.452,407.834c-1.005,0-1.82,1.128-1.82,2.519c0,1.392, 0.815,2.52, 1.82,2.52s 1.82-1.128, 1.82-2.52
	C 244.271,408.961, 243.456,407.834, 242.452,407.834z M 248.788,401.276c 0.207-0.511, 0.217-3.416-0.888-6.196c0,0-2.537,0.277-6.373,2.911
	c-0.805-0.223-2.167-0.333-3.528-0.333c-1.362,0-2.723,0.112-3.529,0.333C 230.636,395.357, 228.101,395.080, 228.101,395.080
	C 226.996,397.86, 227.004,400.765, 227.213,401.276C 225.914,402.688, 225.12,404.382, 225.12,406.696c0,10.060, 8.347,10.221, 10.454,10.221
	c 0.477,0, 1.427,0.001, 2.428,0.003c 1.001-0.001, 1.95-0.003, 2.425-0.003c 2.108,0, 10.454-0.161, 10.454-10.221
	C 250.88,404.382, 250.088,402.688, 248.788,401.276z M 238.039,415.681L 237.962,415.681 c-5.281,0-9.394-0.63-9.394-5.762c0-1.229, 0.435-2.37, 1.464-3.317
	c 1.721-1.578, 4.628-0.742, 7.93-0.742c 0.013,0, 0.027,0, 0.039-0.001c 0.014,0, 0.027,0.001, 0.038,0.001c 3.301,0, 6.21-0.836, 7.93,0.742
	c 1.029,0.946, 1.463,2.087, 1.463,3.317C 247.432,415.051, 243.321,415.681, 238.039,415.681z M 233.549,407.834c-1.005,0-1.82,1.128-1.82,2.519
	c0,1.392, 0.815,2.52, 1.82,2.52s 1.82-1.128, 1.82-2.52C 235.369,408.961, 234.555,407.834, 233.549,407.834z"></path><path d="M 280,392L 287,392L 287,399L 280,399zM 290.5,393.75L 308,393.75L 308,397.25L 290.5,397.25zM 280,402.5L 287,402.5L 287,409.5L 280,409.5zM 290.5,404.25L 308,404.25L 308,407.75L 290.5,407.75zM 280,413L 287,413L 287,420L 280,420zM 290.5,414.75L 308,414.75L 308,418.25L 290.5,418.25z"></path><path d="M 346.5,393.75l 17.5,0 l0,3.5 L 346.5,397.25 L 346.5,393.75 z M 346.5,404.25l 17.5,0 l0,3.5 L 346.5,407.75 L 346.5,404.25 z M 346.5,414.75l 17.5,0 l0,3.5 L 346.5,418.25 L 346.5,414.75 zM 336,395.5A3.5,3.5 2520 1 0 343,395.5A3.5,3.5 2520 1 0 336,395.5zM 336,406A3.5,3.5 2520 1 0 343,406A3.5,3.5 2520 1 0 336,406zM 336,416.5A3.5,3.5 2520 1 0 343,416.5A3.5,3.5 2520 1 0 336,416.5z"></path><path d="M 402.5,414.75L 420,414.75L 420,418.25L 402.5,418.25zM 402.5,404.25L 420,404.25L 420,407.75L 402.5,407.75zM 402.5,393.75L 420,393.75L 420,397.25L 402.5,397.25zM 397.25,392 L 397.25,399 L 395.5,399 L 395.5,393.75 L 393.75,393.75 L 393.75,392 ZM 395.5,406.383 L 395.5,407.75 L 399,407.75 L 399,409.5 L 393.75,409.5 L 393.75,405.508 L 397.25,403.867 L 397.25,402.5 L 393.75,402.5 L 393.75,400.75 L 399,400.75 L 399,404.742 ZM 399,411.25 L 399,420 L 393.75,420 L 393.75,418.25 L 397.25,418.25 L 397.25,416.5 L 393.75,416.5 L 393.75,414.75 L 397.25,414.75 L 397.25,413 L 393.75,413 L 393.75,411.25 Z"></path><path d="M 448.875,402.5l 26.25,0 c 0.484,0, 0.875,0.392, 0.875,0.875l0,5.25 c0,0.484-0.391,0.875-0.875,0.875L 448.875,409.5 c-0.483,0-0.875-0.391-0.875-0.875l0-5.25 
	C 448,402.892, 448.392,402.5, 448.875,402.5z"></path><path d="M 529.948,403.973c 2.731-2.729, 2.731-7.157,0-9.885c-1.364-1.364-3.154-2.047-4.942-2.047
		c-1.786,0-3.577,0.683-4.94,2.047l-0.516,0.516L 516.947,392l-2.467,2.469l 2.605,2.603L 504,410.165l0,6.342 L 507.439,420l 6.487,0 l 13.038-13.043
		l 2.516,2.517l 2.471-2.467l-2.519-2.517L 529.948,403.973z M 513.030,415.946c 0.041-1.327-0.417-2.656-1.425-3.664
		c-0.927-0.929-2.136-1.384-3.353-1.425L 519.556,399.549l 4.938,4.934L 513.030,415.946z"></path></svg>